<svg width="84" height="84" viewBox="0 0 84 84" fill="none" xmlns="http://www.w3.org/2000/svg">
<circle cx="42" cy="42" r="42" fill="#0033A5"/>
<path d="M39.32 47.28L38.08 29H45.52L44.28 47.28H39.32ZM41.8 57.32C40.68 57.32 39.76 56.96 39.04 56.24C38.32 55.52 37.96 54.6667 37.96 53.68C37.96 52.6667 38.32 51.8267 39.04 51.16C39.76 50.4667 40.68 50.12 41.8 50.12C42.9467 50.12 43.8667 50.4667 44.56 51.16C45.28 51.8267 45.64 52.6667 45.64 53.68C45.64 54.6667 45.28 55.52 44.56 56.24C43.8667 56.96 42.9467 57.32 41.8 57.32Z" fill="white"/>
</svg>
