<svg width="84" height="84" viewBox="0 0 84 84" fill="none" xmlns="http://www.w3.org/2000/svg">
<circle cx="42" cy="42" r="42" fill="#0033A5"/>
<path d="M31.3201 54.9999V50.7999L42.1201 40.5999C42.9734 39.8265 43.6001 39.1332 44.0001 38.5199C44.4001 37.9065 44.6668 37.3465 44.8001 36.8399C44.9601 36.3332 45.0401 35.8665 45.0401 35.4399C45.0401 34.3199 44.6534 33.4665 43.8801 32.8799C43.1334 32.2665 42.0268 31.9599 40.5601 31.9599C39.3868 31.9599 38.2934 32.1865 37.2801 32.6399C36.2934 33.0932 35.4534 33.7999 34.7601 34.7599L30.0401 31.7199C31.1068 30.1199 32.6001 28.8532 34.5201 27.9199C36.4401 26.9865 38.6534 26.5199 41.1601 26.5199C43.2401 26.5199 45.0534 26.8665 46.6001 27.5599C48.1734 28.2265 49.3868 29.1732 50.2401 30.3999C51.1201 31.6265 51.5601 33.0932 51.5601 34.7999C51.5601 35.7065 51.4401 36.6132 51.2001 37.5199C50.9868 38.3999 50.5334 39.3332 49.8401 40.3199C49.1734 41.3065 48.1868 42.4132 46.8801 43.6399L37.9201 52.0799L36.6801 49.7199H52.4801V54.9999H31.3201Z" fill="white"/>
</svg>
