<svg width="84" height="84" viewBox="0 0 84 84" fill="none" xmlns="http://www.w3.org/2000/svg">
<circle cx="42" cy="42" r="42" fill="#0033A5"/>
<path d="M40.64 56.48C38.6933 56.48 36.76 56.2267 34.84 55.72C32.92 55.1867 31.2933 54.44 29.96 53.48L32.48 48.52C33.5467 49.2933 34.7867 49.9067 36.2 50.36C37.6133 50.8133 39.04 51.04 40.48 51.04C42.1067 51.04 43.3867 50.72 44.32 50.08C45.2533 49.44 45.72 48.56 45.72 47.44C45.72 46.3733 45.3067 45.5333 44.48 44.92C43.6533 44.3067 42.32 44 40.48 44H37.52V39.72L45.32 30.88L46.04 33.2H31.36V28H50.96V32.2L43.2 41.04L39.92 39.16H41.8C45.24 39.16 47.84 39.9333 49.6 41.48C51.36 43.0267 52.24 45.0133 52.24 47.44C52.24 49.0133 51.8267 50.4933 51 51.88C50.1733 53.24 48.9067 54.3467 47.2 55.2C45.4933 56.0533 43.3067 56.48 40.64 56.48Z" fill="white"/>
</svg>
