<svg width="168" height="32" viewBox="0 0 168 32" fill="none" xmlns="http://www.w3.org/2000/svg">
<path d="M0 5C0 2.23858 2.23858 0 5 0H163C165.761 0 168 2.23858 168 5V27C168 29.7614 165.761 32 163 32H5C2.23858 32 0 29.7614 0 27V5Z" fill="#35DBF4"/>
<path d="M35.6212 10.8H37.7012V22H35.6212V10.8ZM29.8292 22H27.7492V10.8H29.8292V22ZM35.7812 17.2H29.6532V15.424H35.7812V17.2ZM45.8029 22V20.272L45.6909 19.904V16.88C45.6909 16.2933 45.5149 15.84 45.1629 15.52C44.8109 15.1893 44.2776 15.024 43.5629 15.024C43.0829 15.024 42.6083 15.0987 42.1389 15.248C41.6803 15.3973 41.2909 15.6053 40.9709 15.872L40.1869 14.416C40.6456 14.064 41.1896 13.8027 41.8189 13.632C42.4589 13.4507 43.1203 13.36 43.8029 13.36C45.0403 13.36 45.9949 13.6587 46.6669 14.256C47.3496 14.8427 47.6909 15.7547 47.6909 16.992V22H45.8029ZM43.1149 22.112C42.4749 22.112 41.9149 22.0053 41.4349 21.792C40.9549 21.568 40.5816 21.264 40.3149 20.88C40.0589 20.4853 39.9309 20.0427 39.9309 19.552C39.9309 19.072 40.0429 18.64 40.2669 18.256C40.5016 17.872 40.8803 17.568 41.4029 17.344C41.9256 17.12 42.6189 17.008 43.4829 17.008H45.9629V18.336H43.6269C42.9443 18.336 42.4856 18.448 42.2509 18.672C42.0163 18.8853 41.8989 19.152 41.8989 19.472C41.8989 19.8347 42.0429 20.1227 42.3309 20.336C42.6189 20.5493 43.0189 20.656 43.5309 20.656C44.0216 20.656 44.4589 20.544 44.8429 20.32C45.2376 20.096 45.5203 19.7653 45.6909 19.328L46.0269 20.528C45.8349 21.0293 45.4883 21.4187 44.9869 21.696C44.4963 21.9733 43.8723 22.112 43.1149 22.112ZM55.5578 18.624C55.1525 18.816 54.7205 18.976 54.2618 19.104C53.8138 19.2213 53.3391 19.28 52.8378 19.28C51.7605 19.28 50.9231 19.0293 50.3258 18.528C49.7285 18.0267 49.4298 17.248 49.4298 16.192V13.456H51.4298V16.064C51.4298 16.6293 51.5898 17.04 51.9098 17.296C52.2405 17.552 52.6938 17.68 53.2698 17.68C53.6538 17.68 54.0378 17.632 54.4218 17.536C54.8058 17.44 55.1845 17.3067 55.5578 17.136V18.624ZM55.4138 22V13.456H57.4138V22H55.4138ZM60.1033 22V13.456H62.1033V19.088L66.8233 13.456H68.6473V22H66.6473V16.368L61.9433 22H60.1033ZM71.3377 22V13.456H73.3377V16.928H77.6417V13.456H79.6417V22H77.6417V18.624H73.3377V22H71.3377ZM87.5061 22V20.272L87.3941 19.904V16.88C87.3941 16.2933 87.2181 15.84 86.8661 15.52C86.5141 15.1893 85.9807 15.024 85.2661 15.024C84.7861 15.024 84.3114 15.0987 83.8421 15.248C83.3834 15.3973 82.9941 15.6053 82.6741 15.872L81.8901 14.416C82.3487 14.064 82.8927 13.8027 83.5221 13.632C84.1621 13.4507 84.8234 13.36 85.5061 13.36C86.7434 13.36 87.6981 13.6587 88.3701 14.256C89.0527 14.8427 89.3941 15.7547 89.3941 16.992V22H87.5061ZM84.8181 22.112C84.1781 22.112 83.6181 22.0053 83.1381 21.792C82.6581 21.568 82.2847 21.264 82.0181 20.88C81.7621 20.4853 81.6341 20.0427 81.6341 19.552C81.6341 19.072 81.7461 18.64 81.9701 18.256C82.2047 17.872 82.5834 17.568 83.1061 17.344C83.6287 17.12 84.3221 17.008 85.1861 17.008H87.6661V18.336H85.3301C84.6474 18.336 84.1887 18.448 83.9541 18.672C83.7194 18.8853 83.6021 19.152 83.6021 19.472C83.6021 19.8347 83.7461 20.1227 84.0341 20.336C84.3221 20.5493 84.7221 20.656 85.2341 20.656C85.7247 20.656 86.1621 20.544 86.5461 20.32C86.9407 20.096 87.2234 19.7653 87.3941 19.328L87.7301 20.528C87.5381 21.0293 87.1914 21.4187 86.6901 21.696C86.1994 21.9733 85.5754 22.112 84.8181 22.112ZM91.8689 22V13.456H93.8689V16.768H96.4129V18.576H93.8689V22H91.8689ZM99.6769 22.112C98.8236 22.112 98.0609 21.9253 97.3889 21.552C96.7276 21.168 96.2049 20.6453 95.8209 19.984C95.4369 19.3227 95.2449 18.5707 95.2449 17.728C95.2449 16.8747 95.4369 16.1173 95.8209 15.456C96.2049 14.7947 96.7276 14.2827 97.3889 13.92C98.0609 13.5467 98.8236 13.36 99.6769 13.36C100.541 13.36 101.304 13.5467 101.965 13.92C102.637 14.2827 103.165 14.7947 103.549 15.456C103.933 16.1173 104.125 16.8747 104.125 17.728C104.125 18.5707 103.933 19.328 103.549 20C103.165 20.6613 102.637 21.1787 101.965 21.552C101.304 21.9253 100.541 22.112 99.6769 22.112ZM99.6769 20.416C100.157 20.416 100.578 20.304 100.941 20.08C101.314 19.856 101.608 19.5467 101.821 19.152C102.034 18.7573 102.141 18.2827 102.141 17.728C102.141 17.1733 102.034 16.6987 101.821 16.304C101.608 15.8987 101.314 15.5893 100.941 15.376C100.578 15.1627 100.162 15.056 99.6929 15.056C99.2236 15.056 98.8023 15.1627 98.4289 15.376C98.0556 15.5893 97.7623 15.8987 97.5489 16.304C97.3356 16.6987 97.2289 17.1733 97.2289 17.728C97.2289 18.2827 97.3356 18.7573 97.5489 19.152C97.7623 19.5467 98.0556 19.856 98.4289 20.08C98.8023 20.304 99.2183 20.416 99.6769 20.416ZM111.832 20.304L111.4 20.784V13.456H113.4V20.784L112.92 20.304H117.144L116.68 20.784V13.456H118.68V22H106.088V13.456H108.088V20.784L107.624 20.304H111.832ZM118.04 23.76V21.504L118.504 22H116.616V20.304H119.912V23.76H118.04ZM121.369 22V13.456H123.369V19.088L128.089 13.456H129.913V22H127.913V16.368L123.209 22H121.369ZM132.603 22V13.456H134.603V19.088L139.323 13.456H141.147V22H139.147V16.368L134.443 22H132.603ZM136.747 12.448C135.894 12.448 135.238 12.2507 134.779 11.856C134.321 11.4507 134.086 10.864 134.075 10.096H135.403C135.414 10.48 135.531 10.784 135.755 11.008C135.99 11.232 136.315 11.344 136.731 11.344C137.137 11.344 137.457 11.232 137.691 11.008C137.937 10.784 138.065 10.48 138.075 10.096H139.435C139.425 10.864 139.185 11.4507 138.715 11.856C138.257 12.2507 137.601 12.448 136.747 12.448Z" fill="#272727"/>
</svg>
