<svg width="201" height="32" viewBox="0 0 201 32" fill="none" xmlns="http://www.w3.org/2000/svg">
<path d="M201 10C201 4.47715 196.523 0 191 0H24.8548L1.52588e-05 32H201V10Z" fill="#35DBF4"/>
<path d="M51.2061 10.8H53.2861V22H51.2061V10.8ZM45.4141 22H43.3341V10.8H45.4141V22ZM51.3661 17.2H45.2381V15.424H51.3661V17.2ZM61.3878 22V20.272L61.2758 19.904V16.88C61.2758 16.2933 61.0998 15.84 60.7478 15.52C60.3958 15.1893 59.8625 15.024 59.1478 15.024C58.6678 15.024 58.1931 15.0987 57.7238 15.248C57.2651 15.3973 56.8758 15.6053 56.5558 15.872L55.7718 14.416C56.2305 14.064 56.7745 13.8027 57.4038 13.632C58.0438 13.4507 58.7051 13.36 59.3878 13.36C60.6251 13.36 61.5798 13.6587 62.2518 14.256C62.9345 14.8427 63.2758 15.7547 63.2758 16.992V22H61.3878ZM58.6998 22.112C58.0598 22.112 57.4998 22.0053 57.0198 21.792C56.5398 21.568 56.1665 21.264 55.8998 20.88C55.6438 20.4853 55.5158 20.0427 55.5158 19.552C55.5158 19.072 55.6278 18.64 55.8518 18.256C56.0865 17.872 56.4651 17.568 56.9878 17.344C57.5105 17.12 58.2038 17.008 59.0678 17.008H61.5478V18.336H59.2118C58.5291 18.336 58.0705 18.448 57.8358 18.672C57.6011 18.8853 57.4838 19.152 57.4838 19.472C57.4838 19.8347 57.6278 20.1227 57.9158 20.336C58.2038 20.5493 58.6038 20.656 59.1158 20.656C59.6065 20.656 60.0438 20.544 60.4278 20.32C60.8225 20.096 61.1051 19.7653 61.2758 19.328L61.6118 20.528C61.4198 21.0293 61.0731 21.4187 60.5718 21.696C60.0811 21.9733 59.4571 22.112 58.6998 22.112ZM71.1427 18.624C70.7374 18.816 70.3054 18.976 69.8467 19.104C69.3987 19.2213 68.924 19.28 68.4227 19.28C67.3454 19.28 66.508 19.0293 65.9107 18.528C65.3134 18.0267 65.0147 17.248 65.0147 16.192V13.456H67.0147V16.064C67.0147 16.6293 67.1747 17.04 67.4947 17.296C67.8254 17.552 68.2787 17.68 68.8547 17.68C69.2387 17.68 69.6227 17.632 70.0067 17.536C70.3907 17.44 70.7694 17.3067 71.1427 17.136V18.624ZM70.9987 22V13.456H72.9987V22H70.9987ZM75.6882 22V13.456H77.6882V19.088L82.4082 13.456H84.2322V22H82.2322V16.368L77.5282 22H75.6882ZM86.9226 22V13.456H88.9226V16.928H93.2266V13.456H95.2266V22H93.2266V18.624H88.9226V22H86.9226ZM103.091 22V20.272L102.979 19.904V16.88C102.979 16.2933 102.803 15.84 102.451 15.52C102.099 15.1893 101.566 15.024 100.851 15.024C100.371 15.024 99.8963 15.0987 99.4269 15.248C98.9683 15.3973 98.5789 15.6053 98.2589 15.872L97.4749 14.416C97.9336 14.064 98.4776 13.8027 99.1069 13.632C99.7469 13.4507 100.408 13.36 101.091 13.36C102.328 13.36 103.283 13.6587 103.955 14.256C104.638 14.8427 104.979 15.7547 104.979 16.992V22H103.091ZM100.403 22.112C99.7629 22.112 99.2029 22.0053 98.7229 21.792C98.2429 21.568 97.8696 21.264 97.6029 20.88C97.3469 20.4853 97.2189 20.0427 97.2189 19.552C97.2189 19.072 97.3309 18.64 97.5549 18.256C97.7896 17.872 98.1683 17.568 98.6909 17.344C99.2136 17.12 99.9069 17.008 100.771 17.008H103.251V18.336H100.915C100.232 18.336 99.7736 18.448 99.5389 18.672C99.3043 18.8853 99.1869 19.152 99.1869 19.472C99.1869 19.8347 99.3309 20.1227 99.6189 20.336C99.9069 20.5493 100.307 20.656 100.819 20.656C101.31 20.656 101.747 20.544 102.131 20.32C102.526 20.096 102.808 19.7653 102.979 19.328L103.315 20.528C103.123 21.0293 102.776 21.4187 102.275 21.696C101.784 21.9733 101.16 22.112 100.403 22.112ZM107.454 22V13.456H109.454V16.768H111.998V18.576H109.454V22H107.454ZM115.262 22.112C114.408 22.112 113.646 21.9253 112.974 21.552C112.312 21.168 111.79 20.6453 111.406 19.984C111.022 19.3227 110.83 18.5707 110.83 17.728C110.83 16.8747 111.022 16.1173 111.406 15.456C111.79 14.7947 112.312 14.2827 112.974 13.92C113.646 13.5467 114.408 13.36 115.262 13.36C116.126 13.36 116.888 13.5467 117.55 13.92C118.222 14.2827 118.75 14.7947 119.134 15.456C119.518 16.1173 119.71 16.8747 119.71 17.728C119.71 18.5707 119.518 19.328 119.134 20C118.75 20.6613 118.222 21.1787 117.55 21.552C116.888 21.9253 116.126 22.112 115.262 22.112ZM115.262 20.416C115.742 20.416 116.163 20.304 116.526 20.08C116.899 19.856 117.192 19.5467 117.406 19.152C117.619 18.7573 117.726 18.2827 117.726 17.728C117.726 17.1733 117.619 16.6987 117.406 16.304C117.192 15.8987 116.899 15.5893 116.526 15.376C116.163 15.1627 115.747 15.056 115.278 15.056C114.808 15.056 114.387 15.1627 114.014 15.376C113.64 15.5893 113.347 15.8987 113.134 16.304C112.92 16.6987 112.814 17.1733 112.814 17.728C112.814 18.2827 112.92 18.7573 113.134 19.152C113.347 19.5467 113.64 19.856 114.014 20.08C114.387 20.304 114.803 20.416 115.262 20.416ZM127.417 20.304L126.985 20.784V13.456H128.985V20.784L128.505 20.304H132.729L132.265 20.784V13.456H134.265V22H121.673V13.456H123.673V20.784L123.209 20.304H127.417ZM133.625 23.76V21.504L134.089 22H132.201V20.304H135.497V23.76H133.625ZM136.954 22V13.456H138.954V19.088L143.674 13.456H145.498V22H143.498V16.368L138.794 22H136.954ZM148.188 22V13.456H150.188V19.088L154.908 13.456H156.732V22H154.732V16.368L150.028 22H148.188ZM152.332 12.448C151.479 12.448 150.823 12.2507 150.364 11.856C149.906 11.4507 149.671 10.864 149.66 10.096H150.988C150.999 10.48 151.116 10.784 151.34 11.008C151.575 11.232 151.9 11.344 152.316 11.344C152.722 11.344 153.042 11.232 153.276 11.008C153.522 10.784 153.65 10.48 153.66 10.096H155.02C155.01 10.864 154.77 11.4507 154.3 11.856C153.842 12.2507 153.186 12.448 152.332 12.448Z" fill="#272727"/>
</svg>
