<svg width="139" height="224" viewBox="0 0 139 224" fill="none" xmlns="http://www.w3.org/2000/svg">
<g clip-path="url(#clip0_59_559)">
<path d="M139.971 69.1796C140.072 86.0813 134.141 101.595 124.209 113.696C115.656 124.115 110.836 137.104 110.836 150.591V170.027C110.836 175.524 108.83 180.582 105.513 184.492C101.7 188.994 96.1197 192.037 89.8961 192.459C89.3926 192.493 88.9225 192.459 88.4107 192.459H52.5292C52.0466 192.459 51.5243 192.491 51.0501 192.459C39.382 191.711 30.1103 181.882 30.1103 170.03V150.626C30.1103 137.167 25.3616 124.171 16.8044 113.782C6.91426 101.771 0.972656 86.378 0.972656 69.5997C0.972656 31.0332 32.2705 0.0722656 70.4731 0.0722656C108.805 0.0722656 139.746 30.8326 139.971 69.1796Z" fill="#FFB93E"/>
<path d="M89.895 192.457C89.7153 193.849 86.6881 217.088 86.6589 217.309C86.1596 221.144 81.7765 224.072 76.5368 224.072H64.7288C59.5393 224.072 55.1625 221.19 54.6131 217.38C54.0407 213.372 51.8408 198.008 51.0469 192.457H89.895Z" fill="#ED7D2B"/>
<path d="M85.2066 192.457H85.1251H78.5317C67.762 195.573 57.0801 198.649 52.1309 200.048L52.3899 201.864L52.3962 201.903L52.6594 203.742C56.6685 202.633 66.2892 199.874 89.8132 193.055L89.8905 192.457H85.2066V192.457Z" fill="#F99746"/>
<path d="M53.9231 212.556V212.56L53.9273 212.6V212.604L54.1947 214.449C58.8306 213.147 68.3927 210.403 88.3067 204.629L88.5699 202.625V202.608L88.829 200.616C76.2438 204.261 61.0117 208.662 53.6641 210.752L53.9231 212.556Z" fill="#F99746"/>
<path d="M58.3547 222.421L58.4195 222.458C59.2468 222.941 60.1702 223.33 61.1689 223.601H61.173C66.6362 222.036 74.7422 219.693 86.8009 216.199L87.0599 214.191L87.0641 214.174L87.3232 212.182C76.5535 215.3 64.1981 218.872 56.5664 221.056C57.0845 221.568 57.6841 222.026 58.3547 222.421Z" fill="#F99746"/>
<path d="M56.4154 192.457L41.3984 103.769L44.4967 103.244L59.6014 192.457H56.4154Z" fill="#FFEAC5"/>
<path d="M83.1328 192.457H79.9238L96.0063 104.628L99.0982 105.192L83.1328 192.457Z" fill="#FFEAC5"/>
<path d="M78.7634 119.641C78.3602 119.641 77.911 119.591 77.4054 119.476C76.5635 119.284 76.0308 118.703 75.8657 117.79C75.5064 115.825 77.0482 112.22 79.2126 109.165C78.0823 107.19 76.574 105.56 74.9966 105.081C72.663 104.373 69.0822 106.529 66.5877 109.282C67.0432 109.93 67.4547 110.603 67.8141 111.282C69.0905 113.696 70.0098 116.78 68.7542 118.208C68.2883 118.736 67.3377 119.217 65.4533 118.504C63.0988 117.616 62.2527 115.62 63.1301 113.029C63.5605 111.758 64.3544 110.44 65.3635 109.213C63.431 106.692 60.8509 104.778 58.3083 105.098C56.9483 105.269 55.7846 105.746 54.8152 106.417C56.4427 109.445 56.8167 113.286 55.6885 115.349C54.9197 116.753 53.5764 117.196 51.9071 116.605C50.7079 116.178 50.0812 114.525 50.311 112.398C50.5471 110.218 51.6355 107.831 53.5722 106.174C53.0666 105.386 52.4608 104.686 51.7651 104.147C47.3841 100.745 43.7594 104.396 43.6089 104.554L42.9258 103.892C42.9697 103.848 47.3047 99.4782 52.35 103.397C53.1147 103.99 53.7769 104.747 54.3306 105.597C55.4065 104.866 56.6913 104.348 58.1913 104.157C61.0431 103.8 63.8864 105.81 65.9986 108.49C68.7124 105.541 72.5774 103.361 75.2745 104.174C76.9793 104.69 78.5858 106.335 79.8143 108.36C80.9591 106.876 82.2335 105.583 83.4724 104.761C85.4571 103.447 86.7524 103.748 87.4857 104.233C88.2399 104.728 88.8833 105.397 89.414 106.162C90.0115 105.687 90.6383 105.282 91.2608 104.972C93.561 103.825 95.6732 103.911 97.2087 105.209L96.5945 105.936C94.9399 104.534 92.8068 105.265 91.6849 105.825C91.0686 106.132 90.4711 106.523 89.9154 106.97C91.4468 109.733 91.7434 113.332 90.866 115.075C90.3123 116.172 89.3283 116.555 88.1751 116.13C86.0964 115.37 85.5887 113.936 85.5302 112.87C85.4174 110.828 86.8318 108.504 88.6786 106.793C88.2023 106.08 87.6278 105.466 86.9634 105.029C86.0651 104.437 84.8554 104.989 83.9989 105.558C82.7621 106.377 81.4668 107.725 80.3198 109.255C81.7467 111.969 82.4863 115.135 81.9452 117.177C81.6778 118.162 80.9236 119.641 78.7634 119.641ZM79.7056 110.097C77.8233 112.845 76.4967 115.951 76.7996 117.618C76.8957 118.147 77.1547 118.442 77.6144 118.546C79.4779 118.968 80.6228 118.425 81.0176 116.929C81.4772 115.2 80.8776 112.498 79.7056 110.097ZM65.9484 110.03C65.0773 111.117 64.3941 112.26 64.0285 113.336C63.3056 115.464 63.899 116.904 65.7855 117.616C66.5459 117.902 67.5529 118.13 68.0376 117.581C68.7855 116.732 68.3468 114.327 66.97 111.729C66.6671 111.152 66.3245 110.582 65.9484 110.03ZM54.0548 107.014C52.3939 108.496 51.46 110.588 51.2532 112.5C51.0777 114.124 51.4747 115.443 52.2226 115.708C53.4322 116.139 54.318 115.865 54.8508 114.893C55.8181 113.125 55.465 109.727 54.0548 107.014ZM89.1633 107.62C87.5108 109.209 86.3868 111.244 86.4745 112.812C86.5372 113.948 87.2183 114.764 88.4968 115.232C89.1988 115.491 89.6793 115.301 90.0115 114.642C90.7448 113.181 90.4314 110.055 89.1633 107.62Z" fill="#FFEAC5"/>
<path d="M106.347 26.8094C112.06 32.1932 111.344 42.1018 103.994 44.3067C98.4537 45.9682 90.191 43.7487 86.1067 36.6741C82.0245 29.5995 83.9068 23.7852 88.9166 20.8906C93.9265 17.998 100.403 21.2082 106.347 26.8094Z" fill="#FFEAC5"/>
</g>
<defs>
<clipPath id="clip0_59_559">
<rect width="137.982" height="223.701" fill="white" transform="translate(0.972656 0.0722656)"/>
</clipPath>
</defs>
</svg>
