<svg width="99" height="32" viewBox="0 0 99 32" fill="none" xmlns="http://www.w3.org/2000/svg">
<path d="M0 10C0 4.47715 4.47715 0 10 0H86.7581L99 32H0V10Z" fill="#35DBF4"/>
<path d="M24.0288 22V20.608L28.4768 16.384C28.8501 16.032 29.1274 15.7227 29.3088 15.456C29.4901 15.1893 29.6074 14.944 29.6608 14.72C29.7248 14.4853 29.7568 14.2667 29.7568 14.064C29.7568 13.552 29.5808 13.1573 29.2288 12.88C28.8768 12.592 28.3594 12.448 27.6768 12.448C27.1328 12.448 26.6368 12.544 26.1888 12.736C25.7514 12.928 25.3728 13.2213 25.0528 13.616L23.5968 12.496C24.0341 11.9093 24.6208 11.456 25.3568 11.136C26.1034 10.8053 26.9354 10.64 27.8528 10.64C28.6634 10.64 29.3674 10.7733 29.9648 11.04C30.5728 11.296 31.0368 11.664 31.3568 12.144C31.6874 12.624 31.8528 13.1947 31.8528 13.856C31.8528 14.2187 31.8048 14.5813 31.7088 14.944C31.6128 15.296 31.4314 15.6693 31.1648 16.064C30.8981 16.4587 30.5088 16.9013 29.9968 17.392L26.1728 21.024L25.7408 20.24H32.2847V22H24.0288ZM43.9391 18.624C43.5338 18.816 43.1018 18.976 42.6431 19.104C42.1951 19.2213 41.7205 19.28 41.2191 19.28C40.1418 19.28 39.3045 19.0293 38.7071 18.528C38.1098 18.0267 37.8111 17.248 37.8111 16.192V13.456H39.8111V16.064C39.8111 16.6293 39.9711 17.04 40.2911 17.296C40.6218 17.552 41.0751 17.68 41.6511 17.68C42.0351 17.68 42.4191 17.632 42.8031 17.536C43.1871 17.44 43.5658 17.3067 43.9391 17.136V18.624ZM43.7951 22V13.456H45.7951V22H43.7951ZM53.6686 22V20.272L53.5566 19.904V16.88C53.5566 16.2933 53.3806 15.84 53.0286 15.52C52.6766 15.1893 52.1433 15.024 51.4286 15.024C50.9486 15.024 50.474 15.0987 50.0046 15.248C49.546 15.3973 49.1566 15.6053 48.8366 15.872L48.0526 14.416C48.5113 14.064 49.0553 13.8027 49.6846 13.632C50.3246 13.4507 50.986 13.36 51.6686 13.36C52.906 13.36 53.8606 13.6587 54.5326 14.256C55.2153 14.8427 55.5566 15.7547 55.5566 16.992V22H53.6686ZM50.9806 22.112C50.3406 22.112 49.7806 22.0053 49.3006 21.792C48.8206 21.568 48.4473 21.264 48.1806 20.88C47.9246 20.4853 47.7966 20.0427 47.7966 19.552C47.7966 19.072 47.9086 18.64 48.1326 18.256C48.3673 17.872 48.746 17.568 49.2686 17.344C49.7913 17.12 50.4846 17.008 51.3486 17.008H53.8286V18.336H51.4926C50.81 18.336 50.3513 18.448 50.1166 18.672C49.882 18.8853 49.7646 19.152 49.7646 19.472C49.7646 19.8347 49.9086 20.1227 50.1966 20.336C50.4846 20.5493 50.8846 20.656 51.3966 20.656C51.8873 20.656 52.3246 20.544 52.7086 20.32C53.1033 20.096 53.386 19.7653 53.5566 19.328L53.8926 20.528C53.7006 21.0293 53.354 21.4187 52.8526 21.696C52.362 21.9733 51.738 22.112 50.9806 22.112ZM61.9195 22.112C61.0235 22.112 60.2235 21.9253 59.5195 21.552C58.8262 21.168 58.2822 20.6453 57.8875 19.984C57.4928 19.3227 57.2955 18.5707 57.2955 17.728C57.2955 16.8747 57.4928 16.1227 57.8875 15.472C58.2822 14.8107 58.8262 14.2933 59.5195 13.92C60.2235 13.5467 61.0235 13.36 61.9195 13.36C62.7515 13.36 63.4822 13.5307 64.1115 13.872C64.7515 14.2027 65.2368 14.6933 65.5675 15.344L64.0315 16.24C63.7755 15.8347 63.4608 15.536 63.0875 15.344C62.7248 15.152 62.3302 15.056 61.9035 15.056C61.4128 15.056 60.9702 15.1627 60.5755 15.376C60.1808 15.5893 59.8715 15.8987 59.6475 16.304C59.4235 16.6987 59.3115 17.1733 59.3115 17.728C59.3115 18.2827 59.4235 18.7627 59.6475 19.168C59.8715 19.5627 60.1808 19.8667 60.5755 20.08C60.9702 20.2933 61.4128 20.4 61.9035 20.4C62.3302 20.4 62.7248 20.304 63.0875 20.112C63.4608 19.92 63.7755 19.6213 64.0315 19.216L65.5675 20.112C65.2368 20.752 64.7515 21.248 64.1115 21.6C63.4822 21.9413 62.7515 22.112 61.9195 22.112ZM72.5124 22V20.272L72.4004 19.904V16.88C72.4004 16.2933 72.2244 15.84 71.8724 15.52C71.5204 15.1893 70.987 15.024 70.2724 15.024C69.7924 15.024 69.3177 15.0987 68.8484 15.248C68.3897 15.3973 68.0004 15.6053 67.6804 15.872L66.8964 14.416C67.355 14.064 67.899 13.8027 68.5284 13.632C69.1684 13.4507 69.8297 13.36 70.5124 13.36C71.7497 13.36 72.7044 13.6587 73.3764 14.256C74.059 14.8427 74.4004 15.7547 74.4004 16.992V22H72.5124ZM69.8244 22.112C69.1844 22.112 68.6244 22.0053 68.1444 21.792C67.6644 21.568 67.291 21.264 67.0244 20.88C66.7684 20.4853 66.6404 20.0427 66.6404 19.552C66.6404 19.072 66.7524 18.64 66.9764 18.256C67.211 17.872 67.5897 17.568 68.1124 17.344C68.635 17.12 69.3284 17.008 70.1924 17.008H72.6724V18.336H70.3364C69.6537 18.336 69.195 18.448 68.9604 18.672C68.7257 18.8853 68.6084 19.152 68.6084 19.472C68.6084 19.8347 68.7524 20.1227 69.0404 20.336C69.3284 20.5493 69.7284 20.656 70.2404 20.656C70.731 20.656 71.1684 20.544 71.5524 20.32C71.947 20.096 72.2297 19.7653 72.4004 19.328L72.7364 20.528C72.5444 21.0293 72.1977 21.4187 71.6964 21.696C71.2057 21.9733 70.5817 22.112 69.8244 22.112Z" fill="#272727"/>
</svg>
