<svg width="106" height="106" viewBox="0 0 106 106" fill="none" xmlns="http://www.w3.org/2000/svg">
<circle cx="53" cy="53" r="52.5" stroke="#853AC3"/>
<circle cx="53" cy="53" r="52.5" stroke="url(#paint0_linear_292_1096)"/>
<path d="M70.8348 54.2911L46.0136 68.9711C45.0137 69.5625 43.75 68.8418 43.75 67.6801L43.75 38.3199C43.75 37.1582 45.0137 36.4375 46.0136 37.0288L70.8348 51.7089C71.8167 52.2896 71.8167 53.7104 70.8348 54.2911Z" fill="#853AC3"/>
<path d="M70.8348 54.2911L46.0136 68.9711C45.0137 69.5625 43.75 68.8418 43.75 67.6801L43.75 38.3199C43.75 37.1582 45.0137 36.4375 46.0136 37.0288L70.8348 51.7089C71.8167 52.2896 71.8167 53.7104 70.8348 54.2911Z" fill="url(#paint1_linear_292_1096)"/>
<path d="M70.8348 54.2911L46.0136 68.9711C45.0137 69.5625 43.75 68.8418 43.75 67.6801L43.75 38.3199C43.75 37.1582 45.0137 36.4375 46.0136 37.0288L70.8348 51.7089C71.8167 52.2896 71.8167 53.7104 70.8348 54.2911Z" stroke="#853AC3"/>
<path d="M70.8348 54.2911L46.0136 68.9711C45.0137 69.5625 43.75 68.8418 43.75 67.6801L43.75 38.3199C43.75 37.1582 45.0137 36.4375 46.0136 37.0288L70.8348 51.7089C71.8167 52.2896 71.8167 53.7104 70.8348 54.2911Z" stroke="url(#paint2_linear_292_1096)"/>
<defs>
<linearGradient id="paint0_linear_292_1096" x1="106" y1="56.3082" x2="-0.00113791" y2="56.3897" gradientUnits="userSpaceOnUse">
<stop stop-color="#00E0FF"/>
<stop offset="0.341667" stop-color="#0057FF"/>
<stop offset="0.659375" stop-color="#8000FF"/>
<stop offset="1" stop-color="#DB00FF"/>
</linearGradient>
<linearGradient id="paint1_linear_292_1096" x1="52.2204" y1="74" x2="52.1873" y2="31.9996" gradientUnits="userSpaceOnUse">
<stop stop-color="#00E0FF"/>
<stop offset="0.341667" stop-color="#0057FF"/>
<stop offset="0.659375" stop-color="#8000FF"/>
<stop offset="1" stop-color="#DB00FF"/>
</linearGradient>
<linearGradient id="paint2_linear_292_1096" x1="52.2204" y1="74" x2="52.1873" y2="31.9996" gradientUnits="userSpaceOnUse">
<stop stop-color="#00E0FF"/>
<stop offset="0.341667" stop-color="#0057FF"/>
<stop offset="0.659375" stop-color="#8000FF"/>
<stop offset="1" stop-color="#DB00FF"/>
</linearGradient>
</defs>
</svg>
