<svg width="99" height="32" viewBox="0 0 99 32" fill="none" xmlns="http://www.w3.org/2000/svg">
<path d="M0 10C0 4.47715 4.47715 0 10 0H86.7581L99 32H0V10Z" fill="#35DBF4"/>
<path d="M22.7393 19.456V18.016L28.2593 10.8H30.4833L25.0433 18.016L24.0033 17.696H32.8833V19.456H22.7393ZM28.8833 22V19.456L28.9473 17.696V15.44H30.8993V22H28.8833ZM44.2126 18.624C43.8072 18.816 43.3752 18.976 42.9166 19.104C42.4686 19.2213 41.9939 19.28 41.4926 19.28C40.4152 19.28 39.5779 19.0293 38.9806 18.528C38.3832 18.0267 38.0846 17.248 38.0846 16.192V13.456H40.0846V16.064C40.0846 16.6293 40.2446 17.04 40.5646 17.296C40.8952 17.552 41.3486 17.68 41.9246 17.68C42.3086 17.68 42.6926 17.632 43.0766 17.536C43.4606 17.44 43.8392 17.3067 44.2126 17.136V18.624ZM44.0686 22V13.456H46.0686V22H44.0686ZM53.9421 22V20.272L53.8301 19.904V16.88C53.8301 16.2933 53.6541 15.84 53.3021 15.52C52.9501 15.1893 52.4167 15.024 51.7021 15.024C51.2221 15.024 50.7474 15.0987 50.2781 15.248C49.8194 15.3973 49.4301 15.6053 49.1101 15.872L48.3261 14.416C48.7847 14.064 49.3287 13.8027 49.9581 13.632C50.5981 13.4507 51.2594 13.36 51.9421 13.36C53.1794 13.36 54.1341 13.6587 54.8061 14.256C55.4887 14.8427 55.8301 15.7547 55.8301 16.992V22H53.9421ZM51.2541 22.112C50.6141 22.112 50.0541 22.0053 49.5741 21.792C49.0941 21.568 48.7207 21.264 48.4541 20.88C48.1981 20.4853 48.0701 20.0427 48.0701 19.552C48.0701 19.072 48.1821 18.64 48.4061 18.256C48.6407 17.872 49.0194 17.568 49.5421 17.344C50.0647 17.12 50.7581 17.008 51.6221 17.008H54.1021V18.336H51.7661C51.0834 18.336 50.6247 18.448 50.3901 18.672C50.1554 18.8853 50.0381 19.152 50.0381 19.472C50.0381 19.8347 50.1821 20.1227 50.4701 20.336C50.7581 20.5493 51.1581 20.656 51.6701 20.656C52.1607 20.656 52.5981 20.544 52.9821 20.32C53.3767 20.096 53.6594 19.7653 53.8301 19.328L54.1661 20.528C53.9741 21.0293 53.6274 21.4187 53.1261 21.696C52.6354 21.9733 52.0114 22.112 51.2541 22.112ZM62.1929 22.112C61.2969 22.112 60.4969 21.9253 59.7929 21.552C59.0996 21.168 58.5556 20.6453 58.1609 19.984C57.7663 19.3227 57.5689 18.5707 57.5689 17.728C57.5689 16.8747 57.7663 16.1227 58.1609 15.472C58.5556 14.8107 59.0996 14.2933 59.7929 13.92C60.4969 13.5467 61.2969 13.36 62.1929 13.36C63.0249 13.36 63.7556 13.5307 64.3849 13.872C65.0249 14.2027 65.5103 14.6933 65.8409 15.344L64.3049 16.24C64.0489 15.8347 63.7343 15.536 63.3609 15.344C62.9983 15.152 62.6036 15.056 62.1769 15.056C61.6863 15.056 61.2436 15.1627 60.8489 15.376C60.4543 15.5893 60.1449 15.8987 59.9209 16.304C59.6969 16.6987 59.5849 17.1733 59.5849 17.728C59.5849 18.2827 59.6969 18.7627 59.9209 19.168C60.1449 19.5627 60.4543 19.8667 60.8489 20.08C61.2436 20.2933 61.6863 20.4 62.1769 20.4C62.6036 20.4 62.9983 20.304 63.3609 20.112C63.7343 19.92 64.0489 19.6213 64.3049 19.216L65.8409 20.112C65.5103 20.752 65.0249 21.248 64.3849 21.6C63.7556 21.9413 63.0249 22.112 62.1929 22.112ZM72.7858 22V20.272L72.6738 19.904V16.88C72.6738 16.2933 72.4978 15.84 72.1458 15.52C71.7938 15.1893 71.2605 15.024 70.5458 15.024C70.0658 15.024 69.5911 15.0987 69.1218 15.248C68.6631 15.3973 68.2738 15.6053 67.9538 15.872L67.1698 14.416C67.6285 14.064 68.1725 13.8027 68.8018 13.632C69.4418 13.4507 70.1031 13.36 70.7858 13.36C72.0231 13.36 72.9778 13.6587 73.6498 14.256C74.3325 14.8427 74.6738 15.7547 74.6738 16.992V22H72.7858ZM70.0978 22.112C69.4578 22.112 68.8978 22.0053 68.4178 21.792C67.9378 21.568 67.5645 21.264 67.2978 20.88C67.0418 20.4853 66.9138 20.0427 66.9138 19.552C66.9138 19.072 67.0258 18.64 67.2498 18.256C67.4845 17.872 67.8631 17.568 68.3858 17.344C68.9085 17.12 69.6018 17.008 70.4658 17.008H72.9458V18.336H70.6098C69.9271 18.336 69.4685 18.448 69.2338 18.672C68.9991 18.8853 68.8818 19.152 68.8818 19.472C68.8818 19.8347 69.0258 20.1227 69.3138 20.336C69.6018 20.5493 70.0018 20.656 70.5138 20.656C71.0045 20.656 71.4418 20.544 71.8258 20.32C72.2205 20.096 72.5031 19.7653 72.6738 19.328L73.0098 20.528C72.8178 21.0293 72.4711 21.4187 71.9698 21.696C71.4791 21.9733 70.8551 22.112 70.0978 22.112Z" fill="#272727"/>
</svg>
