<svg width="244" height="64" viewBox="0 0 244 64" fill="none" xmlns="http://www.w3.org/2000/svg">
<path d="M76.31 38V22.6H83.218C84.9927 22.6 86.3567 22.9593 87.31 23.678C88.2633 24.382 88.74 25.35 88.74 26.582C88.74 27.418 88.5493 28.122 88.168 28.694C87.8013 29.266 87.3027 29.706 86.672 30.014C86.0413 30.322 85.3593 30.476 84.626 30.476L85.022 29.816C85.902 29.816 86.6793 29.97 87.354 30.278C88.0287 30.586 88.564 31.0407 88.96 31.642C89.356 32.2287 89.554 32.962 89.554 33.842C89.554 35.162 89.0553 36.1887 88.058 36.922C87.0753 37.6407 85.6087 38 83.658 38H76.31ZM78.51 36.218H83.57C84.7873 36.218 85.7187 36.0127 86.364 35.602C87.0093 35.1913 87.332 34.546 87.332 33.666C87.332 32.7713 87.0093 32.1187 86.364 31.708C85.7187 31.2973 84.7873 31.092 83.57 31.092H78.312V29.31H83.02C84.1347 29.31 85 29.1047 85.616 28.694C86.232 28.2833 86.54 27.6673 86.54 26.846C86.54 26.0247 86.232 25.4087 85.616 24.998C85 24.5873 84.1347 24.382 83.02 24.382H78.51V36.218ZM97.5584 38.132C96.5611 38.132 95.6811 37.9487 94.9184 37.582C94.1704 37.2153 93.5837 36.658 93.1584 35.91C92.7477 35.1473 92.5424 34.194 92.5424 33.05V26.34H94.6544V32.808C94.6544 33.952 94.9257 34.81 95.4684 35.382C96.0257 35.954 96.8031 36.24 97.8004 36.24C98.5337 36.24 99.1717 36.0933 99.7144 35.8C100.257 35.492 100.675 35.052 100.968 34.48C101.262 33.8933 101.408 33.1893 101.408 32.368V26.34H103.52V38H101.518V34.854L101.848 35.69C101.467 36.4673 100.895 37.0687 100.132 37.494C99.3697 37.9193 98.5117 38.132 97.5584 38.132ZM110.885 38.132C109.917 38.132 108.993 38 108.113 37.736C107.248 37.472 106.566 37.1493 106.067 36.768L106.947 35.096C107.446 35.4333 108.062 35.7193 108.795 35.954C109.528 36.1887 110.276 36.306 111.039 36.306C112.022 36.306 112.726 36.1667 113.151 35.888C113.591 35.6093 113.811 35.2207 113.811 34.722C113.811 34.3553 113.679 34.0693 113.415 33.864C113.151 33.6587 112.799 33.5047 112.359 33.402C111.934 33.2993 111.457 33.2113 110.929 33.138C110.401 33.05 109.873 32.9473 109.345 32.83C108.817 32.698 108.333 32.522 107.893 32.302C107.453 32.0673 107.101 31.752 106.837 31.356C106.573 30.9453 106.441 30.4027 106.441 29.728C106.441 29.024 106.639 28.408 107.035 27.88C107.431 27.352 107.988 26.9487 108.707 26.67C109.44 26.3767 110.306 26.23 111.303 26.23C112.066 26.23 112.836 26.3253 113.613 26.516C114.405 26.692 115.05 26.9487 115.549 27.286L114.647 28.958C114.119 28.606 113.569 28.364 112.997 28.232C112.425 28.1 111.853 28.034 111.281 28.034C110.357 28.034 109.668 28.188 109.213 28.496C108.758 28.7893 108.531 29.1707 108.531 29.64C108.531 30.036 108.663 30.344 108.927 30.564C109.206 30.7693 109.558 30.9307 109.983 31.048C110.423 31.1653 110.907 31.268 111.435 31.356C111.963 31.4293 112.491 31.532 113.019 31.664C113.547 31.7813 114.024 31.95 114.449 32.17C114.889 32.39 115.241 32.698 115.505 33.094C115.784 33.49 115.923 34.018 115.923 34.678C115.923 35.382 115.718 35.9907 115.307 36.504C114.896 37.0173 114.317 37.4207 113.569 37.714C112.821 37.9927 111.926 38.132 110.885 38.132ZM118.563 38V26.34H120.675V38H118.563ZM119.619 24.096C119.208 24.096 118.863 23.964 118.585 23.7C118.321 23.436 118.189 23.1133 118.189 22.732C118.189 22.336 118.321 22.006 118.585 21.742C118.863 21.478 119.208 21.346 119.619 21.346C120.029 21.346 120.367 21.478 120.631 21.742C120.909 21.9913 121.049 22.3067 121.049 22.688C121.049 23.084 120.917 23.4213 120.653 23.7C120.389 23.964 120.044 24.096 119.619 24.096ZM130.933 26.23C131.886 26.23 132.722 26.4133 133.441 26.78C134.174 27.1467 134.746 27.704 135.157 28.452C135.568 29.2 135.773 30.146 135.773 31.29V38H133.661V31.532C133.661 30.4027 133.382 29.552 132.825 28.98C132.282 28.408 131.512 28.122 130.515 28.122C129.767 28.122 129.114 28.2687 128.557 28.562C128 28.8553 127.567 29.288 127.259 29.86C126.966 30.432 126.819 31.1433 126.819 31.994V38H124.707V26.34H126.731V29.486L126.401 28.65C126.782 27.8873 127.369 27.2933 128.161 26.868C128.953 26.4427 129.877 26.23 130.933 26.23ZM144.874 38.132C143.627 38.132 142.527 37.8753 141.574 37.362C140.635 36.8487 139.902 36.1447 139.374 35.25C138.86 34.3553 138.604 33.3287 138.604 32.17C138.604 31.0113 138.853 29.9847 139.352 29.09C139.865 28.1953 140.562 27.4987 141.442 27C142.336 26.4867 143.341 26.23 144.456 26.23C145.585 26.23 146.582 26.4793 147.448 26.978C148.313 27.4767 148.988 28.1807 149.472 29.09C149.97 29.9847 150.22 31.0333 150.22 32.236C150.22 32.324 150.212 32.4267 150.198 32.544C150.198 32.6613 150.19 32.7713 150.176 32.874H140.254V31.356H149.076L148.218 31.884C148.232 31.136 148.078 30.4687 147.756 29.882C147.433 29.2953 146.986 28.8407 146.414 28.518C145.856 28.1807 145.204 28.012 144.456 28.012C143.722 28.012 143.07 28.1807 142.498 28.518C141.926 28.8407 141.478 29.3027 141.156 29.904C140.833 30.4907 140.672 31.1653 140.672 31.928V32.28C140.672 33.0573 140.848 33.754 141.2 34.37C141.566 34.9713 142.072 35.4407 142.718 35.778C143.363 36.1153 144.104 36.284 144.94 36.284C145.629 36.284 146.252 36.1667 146.81 35.932C147.382 35.6973 147.88 35.3453 148.306 34.876L149.472 36.24C148.944 36.856 148.284 37.3253 147.492 37.648C146.714 37.9707 145.842 38.132 144.874 38.132ZM156.496 38.132C155.528 38.132 154.604 38 153.724 37.736C152.859 37.472 152.177 37.1493 151.678 36.768L152.558 35.096C153.057 35.4333 153.673 35.7193 154.406 35.954C155.14 36.1887 155.888 36.306 156.65 36.306C157.633 36.306 158.337 36.1667 158.762 35.888C159.202 35.6093 159.422 35.2207 159.422 34.722C159.422 34.3553 159.29 34.0693 159.026 33.864C158.762 33.6587 158.41 33.5047 157.97 33.402C157.545 33.2993 157.068 33.2113 156.54 33.138C156.012 33.05 155.484 32.9473 154.956 32.83C154.428 32.698 153.944 32.522 153.504 32.302C153.064 32.0673 152.712 31.752 152.448 31.356C152.184 30.9453 152.052 30.4027 152.052 29.728C152.052 29.024 152.25 28.408 152.646 27.88C153.042 27.352 153.6 26.9487 154.318 26.67C155.052 26.3767 155.917 26.23 156.914 26.23C157.677 26.23 158.447 26.3253 159.224 26.516C160.016 26.692 160.662 26.9487 161.16 27.286L160.258 28.958C159.73 28.606 159.18 28.364 158.608 28.232C158.036 28.1 157.464 28.034 156.892 28.034C155.968 28.034 155.279 28.188 154.824 28.496C154.37 28.7893 154.142 29.1707 154.142 29.64C154.142 30.036 154.274 30.344 154.538 30.564C154.817 30.7693 155.169 30.9307 155.594 31.048C156.034 31.1653 156.518 31.268 157.046 31.356C157.574 31.4293 158.102 31.532 158.63 31.664C159.158 31.7813 159.635 31.95 160.06 32.17C160.5 32.39 160.852 32.698 161.116 33.094C161.395 33.49 161.534 34.018 161.534 34.678C161.534 35.382 161.329 35.9907 160.918 36.504C160.508 37.0173 159.928 37.4207 159.18 37.714C158.432 37.9927 157.538 38.132 156.496 38.132ZM167.518 38.132C166.55 38.132 165.626 38 164.746 37.736C163.881 37.472 163.199 37.1493 162.7 36.768L163.58 35.096C164.079 35.4333 164.695 35.7193 165.428 35.954C166.161 36.1887 166.909 36.306 167.672 36.306C168.655 36.306 169.359 36.1667 169.784 35.888C170.224 35.6093 170.444 35.2207 170.444 34.722C170.444 34.3553 170.312 34.0693 170.048 33.864C169.784 33.6587 169.432 33.5047 168.992 33.402C168.567 33.2993 168.09 33.2113 167.562 33.138C167.034 33.05 166.506 32.9473 165.978 32.83C165.45 32.698 164.966 32.522 164.526 32.302C164.086 32.0673 163.734 31.752 163.47 31.356C163.206 30.9453 163.074 30.4027 163.074 29.728C163.074 29.024 163.272 28.408 163.668 27.88C164.064 27.352 164.621 26.9487 165.34 26.67C166.073 26.3767 166.939 26.23 167.936 26.23C168.699 26.23 169.469 26.3253 170.246 26.516C171.038 26.692 171.683 26.9487 172.182 27.286L171.28 28.958C170.752 28.606 170.202 28.364 169.63 28.232C169.058 28.1 168.486 28.034 167.914 28.034C166.99 28.034 166.301 28.188 165.846 28.496C165.391 28.7893 165.164 29.1707 165.164 29.64C165.164 30.036 165.296 30.344 165.56 30.564C165.839 30.7693 166.191 30.9307 166.616 31.048C167.056 31.1653 167.54 31.268 168.068 31.356C168.596 31.4293 169.124 31.532 169.652 31.664C170.18 31.7813 170.657 31.95 171.082 32.17C171.522 32.39 171.874 32.698 172.138 33.094C172.417 33.49 172.556 34.018 172.556 34.678C172.556 35.382 172.351 35.9907 171.94 36.504C171.529 37.0173 170.95 37.4207 170.202 37.714C169.454 37.9927 168.559 38.132 167.518 38.132Z" fill="#272727"/>
<path d="M175.019 38V22.6H177.967L184.523 33.468H182.961L189.407 22.6H192.333L192.377 38H189.033L189.011 27.726H189.627L184.479 36.372H182.873L177.615 27.726H178.363V38H175.019ZM195.789 38V26.164H199.221V38H195.789ZM197.505 24.514C196.874 24.514 196.361 24.3307 195.965 23.964C195.569 23.5973 195.371 23.1427 195.371 22.6C195.371 22.0573 195.569 21.6027 195.965 21.236C196.361 20.8693 196.874 20.686 197.505 20.686C198.136 20.686 198.649 20.862 199.045 21.214C199.441 21.5513 199.639 21.9913 199.639 22.534C199.639 23.106 199.441 23.5827 199.045 23.964C198.664 24.3307 198.15 24.514 197.505 24.514ZM209.6 25.988C210.539 25.988 211.375 26.1787 212.108 26.56C212.856 26.9267 213.443 27.4987 213.868 28.276C214.294 29.0387 214.506 30.0213 214.506 31.224V38H211.074V31.752C211.074 30.7987 210.862 30.0947 210.436 29.64C210.026 29.1853 209.439 28.958 208.676 28.958C208.134 28.958 207.642 29.0753 207.202 29.31C206.777 29.53 206.44 29.8747 206.19 30.344C205.956 30.8133 205.838 31.4147 205.838 32.148V38H202.406V26.164H205.684V29.442L205.068 28.452C205.494 27.66 206.102 27.0513 206.894 26.626C207.686 26.2007 208.588 25.988 209.6 25.988ZM222.785 38.176C221.67 38.176 220.666 37.9267 219.771 37.428C218.876 36.9147 218.165 36.2033 217.637 35.294C217.124 34.3847 216.867 33.314 216.867 32.082C216.867 30.8353 217.124 29.7573 217.637 28.848C218.165 27.9387 218.876 27.2347 219.771 26.736C220.666 26.2373 221.67 25.988 222.785 25.988C223.782 25.988 224.655 26.208 225.403 26.648C226.151 27.088 226.73 27.7553 227.141 28.65C227.552 29.5447 227.757 30.6887 227.757 32.082C227.757 33.4607 227.559 34.6047 227.163 35.514C226.767 36.4087 226.195 37.076 225.447 37.516C224.714 37.956 223.826 38.176 222.785 38.176ZM223.379 35.36C223.936 35.36 224.442 35.228 224.897 34.964C225.352 34.7 225.711 34.326 225.975 33.842C226.254 33.3433 226.393 32.7567 226.393 32.082C226.393 31.3927 226.254 30.806 225.975 30.322C225.711 29.838 225.352 29.464 224.897 29.2C224.442 28.936 223.936 28.804 223.379 28.804C222.807 28.804 222.294 28.936 221.839 29.2C221.384 29.464 221.018 29.838 220.739 30.322C220.475 30.806 220.343 31.3927 220.343 32.082C220.343 32.7567 220.475 33.3433 220.739 33.842C221.018 34.326 221.384 34.7 221.839 34.964C222.294 35.228 222.807 35.36 223.379 35.36ZM226.481 38V35.58L226.547 32.06L226.327 28.562V21.676H229.759V38H226.481Z" fill="#0033A5"/>
<g clip-path="url(#clip0_292_1270)">
<path d="M32 63.9991C49.6731 63.9991 64 62.7036 64 61.1056C64 59.5075 49.6731 58.212 32 58.212C14.3269 58.212 0 59.5075 0 61.1056C0 62.7036 14.3269 63.9991 32 63.9991Z" fill="url(#paint0_radial_292_1270)"/>
<path d="M55.6726 16.9118C58.1993 22.5013 58.6595 29.0426 56.4626 35.2874C55.9858 36.6435 55.4045 37.9303 54.726 39.1429C54.8256 39.9082 54.8778 40.6831 54.8826 41.4628C54.8849 41.7235 54.8802 41.9866 54.8731 42.2497C54.8731 42.2712 54.8731 42.2928 54.8707 42.3143C54.8612 42.5798 54.847 42.8476 54.8256 43.1155C54.8256 43.1179 54.8256 43.1203 54.8256 43.1227C54.8066 43.3738 54.7805 43.6273 54.7497 43.8809C54.745 43.9191 54.7402 43.9574 54.7355 43.9957C54.7046 44.254 54.6667 44.5123 54.624 44.7706C54.6216 44.7801 54.6192 44.7921 54.6192 44.8017C54.5789 45.0408 54.5338 45.28 54.484 45.5192C54.4721 45.5742 54.4626 45.6268 54.4508 45.6818C54.3962 45.9306 54.3393 46.1817 54.2776 46.4304C54.2752 46.4424 54.2705 46.4543 54.2681 46.4663C54.2088 46.7007 54.1423 46.9351 54.0712 47.1671C54.0522 47.2293 54.0332 47.2914 54.0142 47.3536C53.9383 47.5976 53.86 47.8439 53.7746 48.0879C53.1601 49.8338 52.3227 51.4315 51.3072 52.8689V52.8713C48.0142 57.516 42.8399 60.422 37.2764 60.8812L37.274 60.8836C46.8826 60.3909 58.2586 50.3457 60.6501 39.8963C62.9015 32.0251 60.8351 23.635 55.6726 16.9118Z" fill="url(#paint1_linear_292_1270)"/>
<path d="M60.4413 40.5792C64.8209 26.865 55.8814 11.3954 40.1779 5.78205C37.6228 4.86841 35.0463 4.27048 32.4935 3.97152C19.3713 2.41212 7.02017 8.68081 2.68802 19.9291C8.57888 4.26809 25.8458 -3.84223 41.5824 1.78549C42.567 2.13707 43.5208 2.53649 44.4436 2.97178C58.3108 9.56335 65.3262 25.6716 60.4413 40.5792Z" fill="url(#paint2_linear_292_1270)"/>
<path d="M49.1981 44.2396C46.4176 52.1442 39.5042 57.3773 31.777 58.3484C32.0237 58.2503 32.2728 58.1451 32.5148 58.0374L32.5196 58.035C35.8197 56.557 38.7046 54.1509 40.7545 51.0106L40.7568 51.0082C41.5872 49.7358 42.28 48.3414 42.809 46.8394C45.0629 40.432 43.758 33.618 39.9288 28.5954C39.9265 28.5954 39.9265 28.5906 39.9241 28.5906C37.981 26.0482 35.3903 23.9674 32.2894 22.6352C31.9193 22.475 31.5397 22.3267 31.1578 22.188C23.2218 19.349 14.6667 22.0947 9.72717 28.3969C13.8458 19.0022 24.019 13.9078 33.8719 16.1776C33.8861 16.1824 33.898 16.1872 33.9122 16.1895C34.7426 16.4096 35.573 16.6679 36.401 16.9645C36.9751 17.1701 37.5397 17.3902 38.0902 17.6294C47.9573 22.2167 52.9015 33.7137 49.1981 44.2396Z" fill="url(#paint3_linear_292_1270)"/>
<path d="M9.72717 28.3969C8.45315 30.0184 7.41874 31.872 6.69751 33.9265C5.61092 37.0118 5.35232 40.188 5.80071 43.2136C5.74615 43.1322 5.68921 43.0485 5.63701 42.96C3.62515 38.356 3.23369 33.3286 4.89205 28.6121C7.54686 21.0639 14.7877 16.2398 23.3262 15.3333C26.7046 14.9769 30.2918 15.2328 33.8743 16.18C24.0166 13.9078 13.8434 18.9998 9.72717 28.3969Z" fill="url(#paint4_linear_292_1270)"/>
<path d="M40.6975 51.0919C39.2503 53.5386 35.3998 57.5017 30.0973 58.9248C29.2503 59.152 28.3725 59.219 27.5065 59.0731C27.5018 59.0755 27.4994 59.0731 27.4946 59.0731C25.9288 58.3221 24.5077 57.3845 23.2408 56.2867C19.637 53.1655 17.3215 48.7982 16.7188 44.0889C16.6951 43.9622 16.6738 43.833 16.6548 43.7015C16.5979 43.3045 16.5741 42.9074 16.5812 42.5176C16.5812 42.5056 16.5812 42.4961 16.5812 42.4865C16.6239 40.0756 17.7793 37.8705 19.6085 36.4617C21.7983 42.4793 26.5314 47.5043 32.9869 49.8123C35.5397 50.7212 38.1447 51.1349 40.6975 51.0919Z" fill="url(#paint5_linear_292_1270)"/>
<path d="M40.7497 51.0082C40.7331 51.0369 40.7189 51.0656 40.6975 51.0919C38.1424 51.1349 35.5374 50.7212 32.987 49.8099C26.5291 47.5019 21.7983 42.4769 19.6086 36.4594C20.6287 35.6749 21.8553 35.1343 23.2171 34.943C27.2029 34.3833 30.8992 37.0071 31.777 40.8864C31.7794 40.8912 31.9454 41.9842 31.9478 41.9914C32.866 46.5811 36.4057 50.0491 40.7497 51.0082Z" fill="url(#paint6_linear_292_1270)"/>
<path d="M54.6809 38.8248C54.6809 38.8176 54.6761 38.808 54.6785 38.8009C54.6619 38.6956 54.4389 37.2175 54.4223 37.1219C54.344 36.579 54.2443 36.0384 54.121 35.4979C54.1162 35.4883 54.1091 35.474 54.1115 35.4692C53.7485 33.9002 53.1957 32.3576 52.4697 30.8627C52.4697 30.8556 52.4674 30.8508 52.4674 30.846C49.777 25.2948 44.7212 20.4396 38.0878 17.6294C47.9525 22.2167 52.8968 33.7137 49.1933 44.2396C46.4294 52.094 39.5872 57.3104 31.9169 58.3269C31.9122 58.3245 31.9075 58.3221 31.9075 58.3221C26.8802 58.9224 22.4626 55.5764 22.4626 55.5764C26.3986 59.0444 29.6726 60.7257 34.7568 60.9243C34.7805 60.9243 34.8043 60.9266 34.8256 60.9266C34.9561 60.9314 35.0842 60.9362 35.2171 60.9386C35.4496 60.9458 35.6844 60.9458 35.9169 60.9434C36.0095 60.9434 36.102 60.9434 36.1969 60.9434L36.1945 60.941C42.1637 60.7903 47.7959 57.815 51.3001 52.8737V52.8713C52.3155 51.4339 53.153 49.8363 53.7675 48.0903C54.8588 45.0098 55.1222 41.8431 54.6809 38.8248Z" fill="url(#paint7_linear_292_1270)"/>
<path d="M56.4626 35.2874C55.9858 36.6435 55.4045 37.9303 54.726 39.1429C54.7117 39.0353 54.6975 38.93 54.6833 38.8272C54.6833 38.82 54.6785 38.8104 54.6809 38.8033C54.6643 38.698 54.4413 37.2199 54.4247 37.1243C54.3464 36.5813 54.2467 36.0408 54.1234 35.5003C54.1186 35.4907 54.1115 35.4764 54.1139 35.4716C53.7509 33.9026 53.1981 32.36 52.4721 30.8651C52.4721 30.858 52.4697 30.8532 52.4697 30.8484C50.7782 27.3565 48.1518 24.142 44.7877 21.5374C42.3535 19.6504 39.5374 18.0862 36.4009 16.9645C31.9881 15.3859 27.4994 14.8908 23.3238 15.3309C18.1257 15.8858 13.4092 17.8853 9.91459 21.0734C7.6726 23.1208 5.92882 25.656 4.88968 28.6097C3.23131 33.3262 3.62277 38.3536 5.63463 42.9577C5.5516 42.8357 5.47093 42.7137 5.39501 42.587C5.26453 42.3789 5.13404 42.1708 5.0083 41.9579C4.88968 41.7594 4.77342 41.5609 4.65955 41.3576C4.64531 41.3361 4.63345 41.3146 4.61921 41.2906C4.5172 41.1089 4.41518 40.9247 4.31791 40.7382C4.29893 40.7071 4.27995 40.676 4.26571 40.6401C4.15658 40.4368 4.04982 40.2311 3.95017 40.0254C3.85765 39.8484 3.76987 39.6667 3.68446 39.4897C3.4567 39.0089 3.24555 38.5258 3.051 38.0355C2.95848 37.8131 2.87307 37.5859 2.78529 37.361C2.60498 36.8779 2.43653 36.39 2.28469 35.9021C2.23013 35.7251 2.17556 35.5457 2.12574 35.3687C2.1115 35.3257 2.0949 35.2826 2.08541 35.2372C2.02847 35.0339 1.97153 34.8282 1.91933 34.6225C1.86477 34.4097 1.81257 34.1968 1.76512 33.9839C1.72242 33.8117 1.68446 33.6419 1.65124 33.4697C1.62277 33.3453 1.59905 33.2234 1.5777 33.1014C1.54211 32.9101 1.50652 32.7187 1.47568 32.5274C1.43772 32.293 1.39976 32.0586 1.36654 31.8266C1.3357 31.6209 1.3096 31.4176 1.28825 31.2119C1.27639 31.1474 1.27165 31.0804 1.26453 31.0134C1.21708 30.5805 1.18149 30.1452 1.15777 29.7075C1.1459 29.4755 1.13404 29.234 1.13167 28.9996C1.11981 28.581 1.11981 28.1625 1.13167 27.7416C1.13404 27.6076 1.13879 27.4761 1.14828 27.3421C1.15065 27.2178 1.16014 27.091 1.16726 26.9666C1.172 26.8781 1.17675 26.7873 1.18624 26.6988C1.19573 26.5218 1.21233 26.3472 1.23131 26.1654C1.22894 26.1606 1.22894 26.1535 1.23131 26.1415C1.25029 25.9382 1.27402 25.7325 1.29537 25.5292C1.30249 25.467 1.30961 25.4001 1.32147 25.3379C1.34519 25.1561 1.36892 24.9743 1.39976 24.795C1.40213 24.7663 1.4045 24.7352 1.41162 24.7041C1.43772 24.5343 1.46619 24.3692 1.49703 24.2018C1.51364 24.1014 1.53025 23.9961 1.5516 23.8933C1.56346 23.8263 1.5777 23.7569 1.5943 23.6876C1.62514 23.5226 1.66073 23.3575 1.70106 23.1925C1.74377 22.9988 1.78885 22.805 1.84104 22.6113C1.88137 22.4319 1.93119 22.2502 1.98102 22.0708C2.05694 21.7886 2.14235 21.5063 2.2325 21.2265C2.3013 21.0065 2.37485 20.7888 2.45077 20.5736C2.52669 20.3559 2.60735 20.1407 2.69039 19.9278C4.75682 14.556 8.6548 10.3227 13.5919 7.53392C17.1578 5.5177 21.274 4.25009 25.6323 3.86742C30.3227 3.44647 35.2954 4.03484 40.1803 5.78079C46.6453 8.09119 51.9597 12.0686 55.675 16.9095C58.1993 22.4989 58.6595 29.0403 56.4626 35.2874Z" fill="url(#paint8_linear_292_1270)"/>
<path d="M44.7877 21.5374C42.3535 19.6504 39.5374 18.0862 36.4009 16.9645C31.9881 15.3859 27.4994 14.8908 23.3238 15.3309C14.7877 16.235 7.54685 21.0591 4.88968 28.6097C3.23131 33.3262 3.62277 38.3536 5.63463 42.9577C5.5516 42.8357 5.47093 42.7137 5.39501 42.5869C5.26453 42.3789 5.13404 42.1708 5.0083 41.9579C4.88968 41.7594 4.77342 41.5609 4.65955 41.3576C4.64531 41.3361 4.63345 41.3145 4.61921 41.2906C4.5172 41.1089 4.41518 40.9247 4.31791 40.7381C4.29893 40.707 4.27995 40.676 4.26571 40.6401C4.15658 40.4368 4.04982 40.2311 3.95017 40.0254C3.85765 39.8484 3.76987 39.6666 3.68446 39.4897C3.4567 39.0089 3.24555 38.5258 3.051 38.0355C2.95848 37.8131 2.87307 37.5859 2.78529 37.361C2.60498 36.8779 2.43653 36.39 2.28469 35.9021C2.23013 35.7251 2.17556 35.5457 2.12574 35.3687C2.1115 35.3257 2.0949 35.2826 2.08541 35.2372C2.02847 35.0339 1.97153 34.8282 1.91933 34.6225C1.86477 34.4096 1.81257 34.1968 1.76512 33.9839C1.72242 33.8117 1.68446 33.6419 1.65124 33.4697C1.62277 33.3453 1.59905 33.2234 1.5777 33.1014C1.54211 32.91 1.50652 32.7187 1.47568 32.5274C1.43772 32.293 1.39976 32.0586 1.36654 31.8266C1.3357 31.6209 1.3096 31.4176 1.28825 31.2119C1.27639 31.1473 1.27165 31.0804 1.26453 31.0134C1.21708 30.5805 1.18149 30.1452 1.15777 29.7075C1.1459 29.4755 1.13404 29.234 1.13167 28.9996C1.11981 28.581 1.11981 28.1625 1.13167 27.7415C1.13404 27.6076 1.13879 27.4761 1.14828 27.3421C1.15065 27.2177 1.16014 27.091 1.16726 26.9666C1.172 26.8781 1.17675 26.7872 1.18624 26.6987C1.19573 26.5218 1.21233 26.3472 1.23131 26.1654C1.22894 26.1606 1.22894 26.1534 1.23131 26.1415C1.25029 25.9382 1.27402 25.7325 1.29537 25.5292C1.30249 25.467 1.3096 25.4 1.32147 25.3379C1.34519 25.1561 1.36892 24.9743 1.39976 24.7949C1.40213 24.7662 1.4045 24.7351 1.41162 24.7041C1.43772 24.5342 1.46619 24.3692 1.49703 24.2018C1.51364 24.1013 1.53025 23.9961 1.5516 23.8933C1.56346 23.8263 1.5777 23.7569 1.5943 23.6876C1.62514 23.5225 1.66073 23.3575 1.70106 23.1925C1.74377 22.9988 1.78885 22.805 1.84104 22.6113C1.88137 22.4319 1.93119 22.2502 1.98102 22.0708C2.05694 21.7885 2.14235 21.5063 2.2325 21.2265C2.3013 21.0065 2.37485 20.7888 2.45077 20.5736C2.52669 20.3559 2.60735 20.1407 2.69039 19.9278C4.75682 14.556 8.6548 10.3227 13.5919 7.53391C18.7758 5.57031 24.6453 5.37179 30.2705 7.38323C37.1815 9.85866 42.2966 15.1563 44.7877 21.5374Z" fill="url(#paint9_linear_292_1270)"/>
<path d="M60.4413 40.5803C64.8209 26.8662 55.8814 11.3965 40.1779 5.78317C37.6228 4.86953 35.0463 4.2716 32.4935 3.97264C36.3511 3.01595 40.3843 2.66197 44.446 2.97529C58.3108 9.56447 65.3262 25.6727 60.4413 40.5803Z" fill="url(#paint10_linear_292_1270)"/>
</g>
<defs>
<radialGradient id="paint0_radial_292_1270" cx="0" cy="0" r="1" gradientUnits="userSpaceOnUse" gradientTransform="translate(39.1856 61.1247) scale(22.3956 2.54856)">
<stop stop-color="#515151"/>
<stop offset="0.9997" stop-color="white" stop-opacity="0"/>
</radialGradient>
<linearGradient id="paint1_linear_292_1270" x1="49.3021" y1="48.8402" x2="54.5072" y2="21.59" gradientUnits="userSpaceOnUse">
<stop stop-color="#0059CF"/>
<stop offset="0.3091" stop-color="#0041B4"/>
<stop offset="0.7558" stop-color="#002393"/>
<stop offset="0.9996" stop-color="#001886"/>
</linearGradient>
<linearGradient id="paint2_linear_292_1270" x1="44.298" y1="20.3309" x2="11.3997" y2="21.3305" gradientUnits="userSpaceOnUse">
<stop stop-color="#8137C2"/>
<stop offset="1" stop-color="#300054"/>
</linearGradient>
<linearGradient id="paint3_linear_292_1270" x1="24.8847" y1="10.9598" x2="35.7751" y2="53.135" gradientUnits="userSpaceOnUse">
<stop offset="0.00030185" stop-color="#CF00FF"/>
<stop offset="1" stop-color="#9600FF"/>
</linearGradient>
<linearGradient id="paint4_linear_292_1270" x1="9.63614" y1="41.3726" x2="20.5986" y2="20.1685" gradientUnits="userSpaceOnUse">
<stop offset="0.00030185" stop-color="#C66FD7"/>
<stop offset="1" stop-color="#8137C2"/>
</linearGradient>
<linearGradient id="paint5_linear_292_1270" x1="15.3367" y1="44.8281" x2="39.866" y2="53.4586" gradientUnits="userSpaceOnUse">
<stop offset="0.00030185" stop-color="#FF90ED"/>
<stop offset="1" stop-color="#932BEE"/>
</linearGradient>
<linearGradient id="paint6_linear_292_1270" x1="22.3845" y1="34.6614" x2="33.0922" y2="48.1361" gradientUnits="userSpaceOnUse">
<stop offset="0.00030185" stop-color="#FF9DEF"/>
<stop offset="1" stop-color="#8E3CD6"/>
</linearGradient>
<linearGradient id="paint7_linear_292_1270" x1="26.1845" y1="54.0553" x2="55.9599" y2="24.5906" gradientUnits="userSpaceOnUse">
<stop stop-color="#FF4AF8"/>
<stop offset="1" stop-color="#8F00FF"/>
</linearGradient>
<linearGradient id="paint8_linear_292_1270" x1="48.7225" y1="42.6896" x2="17.725" y2="19.8958" gradientUnits="userSpaceOnUse">
<stop stop-color="#0059CF"/>
<stop offset="0.9996" stop-color="#001886"/>
</linearGradient>
<linearGradient id="paint9_linear_292_1270" x1="6.82155" y1="26.0384" x2="36.182" y2="17.4843" gradientUnits="userSpaceOnUse">
<stop offset="0.00028409" stop-color="#00FFFF"/>
<stop offset="0.9996" stop-color="#0068FF"/>
</linearGradient>
<linearGradient id="paint10_linear_292_1270" x1="63.1213" y1="32.7316" x2="39.5599" y2="3.48548" gradientUnits="userSpaceOnUse">
<stop stop-color="#8137C2"/>
<stop offset="1" stop-color="#300054"/>
</linearGradient>
<clipPath id="clip0_292_1270">
<rect width="64" height="64" fill="white"/>
</clipPath>
</defs>
</svg>
