<svg width="377" height="118" viewBox="0 0 377 118" fill="none" xmlns="http://www.w3.org/2000/svg">
<path d="M153.648 71V48.6H163.312C165.808 48.6 167.739 49.1013 169.104 50.104C170.491 51.1067 171.184 52.5253 171.184 54.36C171.184 55.576 170.896 56.6 170.32 57.432C169.765 58.264 168.997 58.8933 168.016 59.32C167.056 59.7467 166 59.96 164.848 59.96L165.392 59.192C166.821 59.192 168.048 59.416 169.072 59.864C170.117 60.2907 170.928 60.9413 171.504 61.816C172.08 62.6693 172.368 63.736 172.368 65.016C172.368 66.9147 171.664 68.3867 170.256 69.432C168.869 70.4773 166.768 71 163.952 71H153.648ZM156.016 69.048H163.92C165.883 69.048 167.387 68.7173 168.432 68.056C169.477 67.3733 170 66.296 170 64.824C170 63.3733 169.477 62.3173 168.432 61.656C167.387 60.9733 165.883 60.632 163.92 60.632H155.76V58.68H163.152C164.944 58.68 166.331 58.3387 167.312 57.656C168.315 56.9733 168.816 55.96 168.816 54.616C168.816 53.2507 168.315 52.2373 167.312 51.576C166.331 50.8933 164.944 50.552 163.152 50.552H156.016V69.048ZM184.237 71.16C182.808 71.16 181.56 70.8933 180.493 70.36C179.426 69.8267 178.594 69.0267 177.997 67.96C177.421 66.8933 177.133 65.56 177.133 63.96V54.2H179.405V63.704C179.405 65.496 179.842 66.8507 180.717 67.768C181.613 68.664 182.861 69.112 184.461 69.112C185.634 69.112 186.648 68.8773 187.501 68.408C188.376 67.9173 189.037 67.2133 189.485 66.296C189.954 65.3787 190.189 64.28 190.189 63V54.2H192.461V71H190.285V66.392L190.637 67.224C190.104 68.4613 189.272 69.432 188.141 70.136C187.032 70.8187 185.73 71.16 184.237 71.16ZM203.305 71.16C201.918 71.16 200.606 70.968 199.369 70.584C198.132 70.1787 197.161 69.6773 196.457 69.08L197.481 67.288C198.164 67.8 199.038 68.248 200.105 68.632C201.172 68.9947 202.292 69.176 203.465 69.176C205.065 69.176 206.217 68.9307 206.921 68.44C207.625 67.928 207.977 67.256 207.977 66.424C207.977 65.8053 207.774 65.3253 207.369 64.984C206.985 64.6213 206.473 64.3547 205.833 64.184C205.193 63.992 204.478 63.832 203.689 63.704C202.9 63.576 202.11 63.4267 201.321 63.256C200.553 63.0853 199.849 62.84 199.209 62.52C198.569 62.1787 198.046 61.72 197.641 61.144C197.257 60.568 197.065 59.8 197.065 58.84C197.065 57.9227 197.321 57.1013 197.833 56.376C198.345 55.6507 199.092 55.0853 200.073 54.68C201.076 54.2533 202.292 54.04 203.721 54.04C204.809 54.04 205.897 54.1893 206.985 54.488C208.073 54.7653 208.969 55.1387 209.673 55.608L208.681 57.432C207.934 56.92 207.134 56.5573 206.281 56.344C205.428 56.1093 204.574 55.992 203.721 55.992C202.206 55.992 201.086 56.2587 200.361 56.792C199.657 57.304 199.305 57.9653 199.305 58.776C199.305 59.416 199.497 59.9173 199.881 60.28C200.286 60.6427 200.809 60.9307 201.449 61.144C202.11 61.336 202.825 61.496 203.593 61.624C204.382 61.752 205.161 61.912 205.929 62.104C206.718 62.2747 207.433 62.52 208.073 62.84C208.734 63.1387 209.257 63.576 209.641 64.152C210.046 64.7067 210.249 65.4427 210.249 66.36C210.249 67.3413 209.972 68.1947 209.417 68.92C208.884 69.624 208.094 70.1787 207.049 70.584C206.025 70.968 204.777 71.16 203.305 71.16ZM214.418 71V54.2H216.69V71H214.418ZM215.57 50.488C215.101 50.488 214.706 50.328 214.386 50.008C214.066 49.688 213.906 49.304 213.906 48.856C213.906 48.408 214.066 48.0347 214.386 47.736C214.706 47.416 215.101 47.256 215.57 47.256C216.039 47.256 216.434 47.4053 216.754 47.704C217.074 48.0027 217.234 48.376 217.234 48.824C217.234 49.2933 217.074 49.688 216.754 50.008C216.455 50.328 216.061 50.488 215.57 50.488ZM231.588 54.04C232.953 54.04 234.148 54.3067 235.172 54.84C236.217 55.352 237.028 56.1413 237.604 57.208C238.201 58.2747 238.5 59.6187 238.5 61.24V71H236.228V61.464C236.228 59.6933 235.78 58.36 234.884 57.464C234.009 56.5467 232.772 56.088 231.172 56.088C229.977 56.088 228.932 56.3333 228.036 56.824C227.161 57.2933 226.478 57.9867 225.988 58.904C225.518 59.8 225.284 60.888 225.284 62.168V71H223.012V54.2H225.188V58.808L224.836 57.944C225.369 56.728 226.222 55.7787 227.396 55.096C228.569 54.392 229.966 54.04 231.588 54.04ZM251.773 71.16C250.023 71.16 248.487 70.7973 247.165 70.072C245.842 69.3253 244.807 68.312 244.061 67.032C243.314 65.7307 242.941 64.248 242.941 62.584C242.941 60.92 243.293 59.448 243.997 58.168C244.722 56.888 245.703 55.8853 246.941 55.16C248.199 54.4133 249.607 54.04 251.165 54.04C252.743 54.04 254.141 54.4027 255.357 55.128C256.594 55.832 257.565 56.8347 258.269 58.136C258.973 59.416 259.325 60.8987 259.325 62.584C259.325 62.6907 259.314 62.808 259.293 62.936C259.293 63.0427 259.293 63.16 259.293 63.288H244.669V61.592H258.077L257.181 62.264C257.181 61.048 256.914 59.9707 256.381 59.032C255.869 58.072 255.165 57.3253 254.269 56.792C253.373 56.2587 252.338 55.992 251.165 55.992C250.013 55.992 248.978 56.2587 248.061 56.792C247.143 57.3253 246.429 58.072 245.917 59.032C245.405 59.992 245.149 61.0907 245.149 62.328V62.68C245.149 63.96 245.426 65.0907 245.981 66.072C246.557 67.032 247.346 67.7893 248.349 68.344C249.373 68.8773 250.535 69.144 251.837 69.144C252.861 69.144 253.81 68.9627 254.685 68.6C255.581 68.2373 256.349 67.6827 256.989 66.936L258.269 68.408C257.522 69.304 256.583 69.9867 255.453 70.456C254.343 70.9253 253.117 71.16 251.773 71.16ZM268.461 71.16C267.075 71.16 265.763 70.968 264.525 70.584C263.288 70.1787 262.317 69.6773 261.613 69.08L262.637 67.288C263.32 67.8 264.195 68.248 265.261 68.632C266.328 68.9947 267.448 69.176 268.621 69.176C270.221 69.176 271.373 68.9307 272.077 68.44C272.781 67.928 273.133 67.256 273.133 66.424C273.133 65.8053 272.931 65.3253 272.525 64.984C272.141 64.6213 271.629 64.3547 270.989 64.184C270.349 63.992 269.635 63.832 268.845 63.704C268.056 63.576 267.267 63.4267 266.477 63.256C265.709 63.0853 265.005 62.84 264.365 62.52C263.725 62.1787 263.203 61.72 262.797 61.144C262.413 60.568 262.221 59.8 262.221 58.84C262.221 57.9227 262.477 57.1013 262.989 56.376C263.501 55.6507 264.248 55.0853 265.229 54.68C266.232 54.2533 267.448 54.04 268.877 54.04C269.965 54.04 271.053 54.1893 272.141 54.488C273.229 54.7653 274.125 55.1387 274.829 55.608L273.837 57.432C273.091 56.92 272.291 56.5573 271.437 56.344C270.584 56.1093 269.731 55.992 268.877 55.992C267.363 55.992 266.243 56.2587 265.517 56.792C264.813 57.304 264.461 57.9653 264.461 58.776C264.461 59.416 264.653 59.9173 265.037 60.28C265.443 60.6427 265.965 60.9307 266.605 61.144C267.267 61.336 267.981 61.496 268.749 61.624C269.539 61.752 270.317 61.912 271.085 62.104C271.875 62.2747 272.589 62.52 273.229 62.84C273.891 63.1387 274.413 63.576 274.797 64.152C275.203 64.7067 275.405 65.4427 275.405 66.36C275.405 67.3413 275.128 68.1947 274.573 68.92C274.04 69.624 273.251 70.1787 272.205 70.584C271.181 70.968 269.933 71.16 268.461 71.16ZM284.086 71.16C282.7 71.16 281.388 70.968 280.15 70.584C278.913 70.1787 277.942 69.6773 277.238 69.08L278.262 67.288C278.945 67.8 279.82 68.248 280.886 68.632C281.953 68.9947 283.073 69.176 284.246 69.176C285.846 69.176 286.998 68.9307 287.702 68.44C288.406 67.928 288.758 67.256 288.758 66.424C288.758 65.8053 288.556 65.3253 288.15 64.984C287.766 64.6213 287.254 64.3547 286.614 64.184C285.974 63.992 285.26 63.832 284.47 63.704C283.681 63.576 282.892 63.4267 282.102 63.256C281.334 63.0853 280.63 62.84 279.99 62.52C279.35 62.1787 278.828 61.72 278.422 61.144C278.038 60.568 277.846 59.8 277.846 58.84C277.846 57.9227 278.102 57.1013 278.614 56.376C279.126 55.6507 279.873 55.0853 280.854 54.68C281.857 54.2533 283.073 54.04 284.502 54.04C285.59 54.04 286.678 54.1893 287.766 54.488C288.854 54.7653 289.75 55.1387 290.454 55.608L289.462 57.432C288.716 56.92 287.916 56.5573 287.062 56.344C286.209 56.1093 285.356 55.992 284.502 55.992C282.988 55.992 281.868 56.2587 281.142 56.792C280.438 57.304 280.086 57.9653 280.086 58.776C280.086 59.416 280.278 59.9173 280.662 60.28C281.068 60.6427 281.59 60.9307 282.23 61.144C282.892 61.336 283.606 61.496 284.374 61.624C285.164 61.752 285.942 61.912 286.71 62.104C287.5 62.2747 288.214 62.52 288.854 62.84C289.516 63.1387 290.038 63.576 290.422 64.152C290.828 64.7067 291.03 65.4427 291.03 66.36C291.03 67.3413 290.753 68.1947 290.198 68.92C289.665 69.624 288.876 70.1787 287.83 70.584C286.806 70.968 285.558 71.16 284.086 71.16Z" fill="black"/>
<path d="M294.687 71V48.6H298.975L308.511 64.408H306.239L315.615 48.6H319.871L319.935 71H315.071L315.039 56.056H315.935L308.447 68.632H306.111L298.463 56.056H299.551V71H294.687ZM324.898 71V53.784H329.89V71H324.898ZM327.394 51.384C326.476 51.384 325.73 51.1173 325.154 50.584C324.578 50.0507 324.29 49.3893 324.29 48.6C324.29 47.8107 324.578 47.1493 325.154 46.616C325.73 46.0827 326.476 45.816 327.394 45.816C328.311 45.816 329.058 46.072 329.634 46.584C330.21 47.0747 330.498 47.7147 330.498 48.504C330.498 49.336 330.21 50.0293 329.634 50.584C329.079 51.1173 328.332 51.384 327.394 51.384ZM344.987 53.528C346.352 53.528 347.568 53.8053 348.635 54.36C349.723 54.8933 350.576 55.7253 351.195 56.856C351.813 57.9653 352.123 59.3947 352.123 61.144V71H347.131V61.912C347.131 60.5253 346.821 59.5013 346.203 58.84C345.605 58.1787 344.752 57.848 343.643 57.848C342.853 57.848 342.139 58.0187 341.499 58.36C340.88 58.68 340.389 59.1813 340.027 59.864C339.685 60.5467 339.515 61.4213 339.515 62.488V71H334.523V53.784H339.291V58.552L338.395 57.112C339.013 55.96 339.899 55.0747 341.051 54.456C342.203 53.8373 343.515 53.528 344.987 53.528ZM364.165 71.256C362.543 71.256 361.082 70.8933 359.781 70.168C358.479 69.4213 357.445 68.3867 356.677 67.064C355.93 65.7413 355.557 64.184 355.557 62.392C355.557 60.5787 355.93 59.0107 356.677 57.688C357.445 56.3653 358.479 55.3413 359.781 54.616C361.082 53.8907 362.543 53.528 364.165 53.528C365.615 53.528 366.885 53.848 367.973 54.488C369.061 55.128 369.903 56.0987 370.501 57.4C371.098 58.7013 371.397 60.3653 371.397 62.392C371.397 64.3973 371.109 66.0613 370.533 67.384C369.957 68.6853 369.125 69.656 368.037 70.296C366.97 70.936 365.679 71.256 364.165 71.256ZM365.029 67.16C365.839 67.16 366.575 66.968 367.237 66.584C367.898 66.2 368.421 65.656 368.805 64.952C369.21 64.2267 369.413 63.3733 369.413 62.392C369.413 61.3893 369.21 60.536 368.805 59.832C368.421 59.128 367.898 58.584 367.237 58.2C366.575 57.816 365.839 57.624 365.029 57.624C364.197 57.624 363.45 57.816 362.789 58.2C362.127 58.584 361.594 59.128 361.189 59.832C360.805 60.536 360.613 61.3893 360.613 62.392C360.613 63.3733 360.805 64.2267 361.189 64.952C361.594 65.656 362.127 66.2 362.789 66.584C363.45 66.968 364.197 67.16 365.029 67.16ZM369.541 71V67.48L369.637 62.36L369.317 57.272V47.256H374.309V71H369.541Z" fill="#0033A5"/>
<g clip-path="url(#clip0_293_1352)">
<path d="M60 118C93.1371 118 120 115.611 120 112.664C120 109.718 93.1371 107.329 60 107.329C26.8629 107.329 0 109.718 0 112.664C0 115.611 26.8629 118 60 118Z" fill="url(#paint0_radial_293_1352)"/>
<path d="M104.386 31.1816C109.124 41.4872 109.987 53.5478 105.867 65.0616C104.973 67.5619 103.883 69.9344 102.611 72.1701C102.798 73.5812 102.896 75.01 102.905 76.4475C102.909 76.9282 102.9 77.4133 102.887 77.8983C102.887 77.938 102.887 77.9777 102.883 78.0174C102.865 78.5069 102.838 79.0008 102.798 79.4947C102.798 79.4991 102.798 79.5035 102.798 79.5079C102.762 79.9709 102.714 80.4383 102.656 80.9058C102.647 80.9763 102.638 81.0469 102.629 81.1174C102.571 81.5937 102.5 82.0699 102.42 82.5462C102.415 82.5638 102.411 82.5859 102.411 82.6035C102.335 83.0445 102.251 83.4855 102.157 83.9264C102.135 84.0279 102.117 84.1249 102.095 84.2263C101.993 84.6849 101.886 85.1479 101.77 85.6065C101.766 85.6286 101.757 85.6506 101.753 85.6727C101.641 86.1048 101.517 86.537 101.383 86.9647C101.348 87.0794 101.312 87.194 101.277 87.3087C101.134 87.7585 100.988 88.2127 100.827 88.6625C99.6753 91.8816 98.105 94.8273 96.2011 97.4775V97.482C90.0267 106.046 80.3247 111.403 69.8932 112.25L69.8888 112.255C87.9048 111.346 109.235 92.8253 113.719 73.5592C117.94 59.0467 114.066 43.5774 104.386 31.1816Z" fill="url(#paint1_linear_293_1352)"/>
<path d="M113.327 74.8202C121.539 49.5348 104.778 21.0127 75.3336 10.663C70.5427 8.97852 65.7117 7.87608 60.9253 7.32487C36.3212 4.44972 13.1628 16.0076 5.04004 36.7466C16.0854 7.87167 48.4609 -7.08173 77.9671 3.29437C79.8132 3.9426 81.6014 4.67903 83.3318 5.4816C109.333 17.6348 122.487 47.3344 113.327 74.8202Z" fill="url(#paint2_linear_293_1352)"/>
<path d="M92.2464 81.5669C87.0329 96.141 74.0703 105.79 59.5819 107.58C60.0445 107.399 60.5116 107.205 60.9653 107.007L60.9742 107.002C67.1619 104.277 72.5712 99.8408 76.4146 94.0508L76.419 94.0464C77.976 91.7004 79.2749 89.1296 80.2669 86.3602C84.4929 74.5466 82.0463 61.9833 74.8666 52.7228C74.8621 52.7228 74.8621 52.714 74.8577 52.714C71.2144 48.0265 66.3568 44.19 60.5427 41.7338C59.8488 41.4383 59.137 41.1649 58.4208 40.9091C43.5409 35.6748 27.5 40.7372 18.2384 52.3568C25.9609 35.0354 45.0356 25.6427 63.5098 29.8275C63.5365 29.8363 63.5587 29.8451 63.5854 29.8495C65.1423 30.2552 66.6993 30.7315 68.2518 31.2783C69.3283 31.6575 70.387 32.0632 71.419 32.5042C89.9199 40.9621 99.1904 62.1596 92.2464 81.5669Z" fill="url(#paint3_linear_293_1352)"/>
<path d="M18.2384 52.3571C15.8496 55.3469 13.9101 58.7644 12.5578 62.5524C10.5205 68.2409 10.0356 74.097 10.8763 79.6754C10.774 79.5254 10.6673 79.3711 10.5694 79.2079C6.79715 70.7192 6.06316 61.4499 9.17259 52.7539C14.1504 38.8368 27.7269 29.9424 43.7366 28.2711C50.0712 27.6141 56.7971 28.0859 63.5142 29.8322C45.0311 25.6429 25.9564 35.0312 18.2384 52.3571Z" fill="url(#paint4_linear_293_1352)"/>
<path d="M76.3078 94.2009C73.5943 98.712 66.3746 106.019 56.4324 108.643C54.8443 109.062 53.1984 109.185 51.5747 108.916C51.5658 108.921 51.5614 108.916 51.5525 108.916C48.6166 107.532 45.952 105.803 43.5765 103.779C36.8194 98.0241 32.4778 89.972 31.3479 81.2892C31.3034 81.0555 31.2633 80.8174 31.2278 80.5748C31.121 79.8428 31.0765 79.1108 31.0899 78.392C31.0899 78.37 31.0899 78.3523 31.0899 78.3347C31.1699 73.8897 33.3363 69.8239 36.766 67.2266C40.8719 78.3214 49.7464 87.5863 61.8505 91.8417C66.637 93.5174 71.5214 94.2803 76.3078 94.2009Z" fill="url(#paint5_linear_293_1352)"/>
<path d="M76.4057 94.0468C76.3745 94.0997 76.3478 94.1527 76.3078 94.2012C71.5169 94.2805 66.6325 93.5177 61.8505 91.8375C49.742 87.5822 40.8719 78.3173 36.766 67.2224C38.6788 65.776 40.9786 64.7794 43.532 64.4267C51.0053 63.3948 57.9359 68.2323 59.5818 75.3848C59.5863 75.3937 59.8977 77.4089 59.9021 77.4221C61.6236 85.8844 68.2606 92.2785 76.4057 94.0468Z" fill="url(#paint6_linear_293_1352)"/>
<path d="M102.527 71.5834C102.527 71.5702 102.518 71.5526 102.522 71.5393C102.491 71.3453 102.073 68.6201 102.042 68.4437C101.895 67.4427 101.708 66.4461 101.477 65.4495C101.468 65.4319 101.455 65.4054 101.459 65.3966C100.778 62.5038 99.742 59.6595 98.3808 56.9034C98.3808 56.8902 98.3763 56.8814 98.3763 56.8726C93.3318 46.6376 83.8523 37.6858 71.4146 32.5044C89.911 40.9623 99.1815 62.1598 92.2375 81.5671C87.0552 96.0486 74.226 105.666 59.8443 107.54C59.8354 107.536 59.8265 107.532 59.8265 107.532C50.4004 108.638 42.1174 102.469 42.1174 102.469C49.4973 108.863 55.6361 111.963 65.169 112.329C65.2135 112.329 65.258 112.334 65.298 112.334C65.5427 112.343 65.7829 112.351 66.032 112.356C66.468 112.369 66.9084 112.369 67.3443 112.365C67.5178 112.365 67.6913 112.365 67.8692 112.365L67.8648 112.36C79.0569 112.082 89.6174 106.597 96.1877 97.4862V97.4818C98.0916 94.8315 99.6619 91.8858 100.814 88.6667C102.86 82.987 103.354 77.1485 102.527 71.5834Z" fill="url(#paint7_linear_293_1352)"/>
<path d="M105.867 65.0616C104.973 67.5619 103.883 69.9344 102.611 72.1701C102.585 71.9717 102.558 71.7776 102.531 71.588C102.531 71.5748 102.522 71.5572 102.527 71.5439C102.496 71.3499 102.077 68.6247 102.046 68.4483C101.899 67.4473 101.713 66.4507 101.481 65.4541C101.472 65.4364 101.459 65.41 101.464 65.4012C100.783 62.5084 99.7464 59.6641 98.3852 56.908C98.3852 56.8948 98.3808 56.886 98.3808 56.8771C95.2091 50.4389 90.2847 44.5123 83.9769 39.7101C79.4128 36.2308 74.1326 33.3468 68.2518 31.2787C59.9777 28.3682 51.5614 27.4554 43.7322 28.2668C33.9858 29.2899 25.1423 32.9764 18.5898 38.8546C14.3861 42.6293 11.1165 47.3036 9.16814 52.7496C6.05871 61.4456 6.79269 70.7149 10.5649 79.2036C10.4092 78.9787 10.258 78.7538 10.1156 78.5201C9.87099 78.1365 9.62632 77.7528 9.39056 77.3604C9.16814 76.9943 8.95017 76.6283 8.73664 76.2535C8.70995 76.2138 8.68771 76.1741 8.66102 76.13C8.46974 75.7949 8.27846 75.4554 8.09608 75.1114C8.06049 75.0541 8.0249 74.9967 7.99821 74.9306C7.79358 74.5558 7.59341 74.1765 7.40657 73.7973C7.23309 73.471 7.06849 73.1358 6.90835 72.8095C6.48131 71.9232 6.0854 71.0324 5.72063 70.1284C5.54714 69.7183 5.387 69.2994 5.22241 68.8849C4.88433 67.9941 4.56849 67.0945 4.2838 66.1949C4.18148 65.8686 4.07917 65.5379 3.98575 65.2115C3.95906 65.1322 3.92793 65.0528 3.91013 64.969C3.80337 64.5942 3.69661 64.2149 3.59874 63.8357C3.49643 63.4432 3.39857 63.0508 3.3096 62.6583C3.22953 62.3408 3.15835 62.0277 3.09607 61.7102C3.04269 61.4809 2.99821 61.256 2.95817 61.0311C2.89145 60.6783 2.82472 60.3256 2.76689 59.9728C2.69572 59.5406 2.62454 59.1085 2.56227 58.6807C2.50444 58.3015 2.45551 57.9267 2.41547 57.5474C2.39323 57.4284 2.38433 57.3049 2.37099 57.1814C2.28202 56.3833 2.21529 55.5807 2.17081 54.7737C2.14857 54.346 2.12632 53.9006 2.12188 53.4684C2.09963 52.6967 2.09963 51.925 2.12188 51.1489C2.12632 50.902 2.13522 50.6594 2.15301 50.4125C2.15746 50.1832 2.17526 49.9495 2.1886 49.7202C2.1975 49.557 2.2064 49.3894 2.22419 49.2263C2.24198 48.8999 2.27312 48.578 2.30871 48.2429C2.30426 48.2341 2.30426 48.2208 2.30871 48.1988C2.3443 47.824 2.38878 47.4447 2.42882 47.0699C2.44216 46.9552 2.45551 46.8318 2.47775 46.7171C2.52223 46.382 2.56672 46.0468 2.62454 45.7161C2.62899 45.6632 2.63344 45.6059 2.64679 45.5485C2.69572 45.2355 2.7491 44.9312 2.80693 44.6225C2.83807 44.4373 2.86921 44.2433 2.90924 44.0536C2.93148 43.9302 2.95817 43.8023 2.98931 43.6744C3.04714 43.3701 3.11387 43.0659 3.18949 42.7616C3.26956 42.4044 3.35408 42.0472 3.45195 41.69C3.52757 41.3593 3.62099 41.0242 3.7144 40.6934C3.85675 40.1731 4.01689 39.6527 4.18593 39.1368C4.31494 38.7311 4.45284 38.3298 4.59519 37.9329C4.73753 37.5317 4.88878 37.1348 5.04447 36.7423C8.91903 26.8381 16.2277 19.0328 25.4849 13.8911C32.1708 10.1737 39.8888 7.83652 48.0605 7.13097C56.855 6.35485 66.1788 7.43965 75.3381 10.6588C87.46 14.9186 97.4244 22.2519 104.391 31.1772C109.124 41.4828 109.987 53.5434 105.867 65.0616Z" fill="url(#paint8_linear_293_1352)"/>
<path d="M83.9769 39.7101C79.4128 36.2308 74.1326 33.3468 68.2518 31.2787C59.9777 28.3682 51.5614 27.4554 43.7322 28.2668C27.7269 29.9337 14.1503 38.8281 9.16814 52.7497C6.05871 61.4456 6.79269 70.7149 10.5649 79.2036C10.4092 78.9787 10.258 78.7538 10.1156 78.5201C9.87099 78.1365 9.62632 77.7528 9.39056 77.3604C9.16814 76.9944 8.95017 76.6284 8.73664 76.2535C8.70995 76.2138 8.68771 76.1741 8.66102 76.1301C8.46974 75.7949 8.27846 75.4554 8.09608 75.1114C8.06049 75.0541 8.0249 74.9968 7.99821 74.9306C7.79358 74.5558 7.59341 74.1765 7.40657 73.7973C7.23309 73.471 7.06849 73.1358 6.90835 72.8095C6.48131 71.9232 6.0854 71.0324 5.72063 70.1284C5.54714 69.7183 5.387 69.2994 5.22241 68.8849C4.88433 67.9941 4.56849 67.0945 4.2838 66.1949C4.18148 65.8686 4.07917 65.5379 3.98575 65.2116C3.95906 65.1322 3.92793 65.0528 3.91013 64.969C3.80337 64.5942 3.69661 64.215 3.59874 63.8357C3.49643 63.4433 3.39857 63.0508 3.3096 62.6583C3.22953 62.3408 3.15835 62.0277 3.09607 61.7102C3.04269 61.4809 2.99821 61.256 2.95817 61.0311C2.89145 60.6783 2.82472 60.3256 2.76689 59.9728C2.69572 59.5406 2.62454 59.1085 2.56227 58.6807C2.50444 58.3015 2.45551 57.9267 2.41547 57.5474C2.39323 57.4284 2.38433 57.3049 2.37099 57.1814C2.28202 56.3833 2.21529 55.5807 2.17081 54.7737C2.14857 54.346 2.12632 53.9006 2.12188 53.4684C2.09963 52.6967 2.09963 51.925 2.12188 51.1489C2.12632 50.902 2.13522 50.6594 2.15301 50.4125C2.15746 50.1832 2.17526 49.9495 2.1886 49.7202C2.1975 49.557 2.2064 49.3894 2.22419 49.2263C2.24198 48.9 2.27312 48.578 2.30871 48.2429C2.30426 48.2341 2.30426 48.2209 2.30871 48.1988C2.3443 47.824 2.38878 47.4447 2.42882 47.0699C2.44216 46.9553 2.45551 46.8318 2.47775 46.7171C2.52223 46.382 2.56672 46.0469 2.62454 45.7161C2.62899 45.6632 2.63344 45.6059 2.64679 45.5486C2.69572 45.2355 2.7491 44.9312 2.80693 44.6225C2.83807 44.4373 2.86921 44.2433 2.90924 44.0537C2.93148 43.9302 2.95817 43.8023 2.98931 43.6744C3.04714 43.3702 3.11387 43.0659 3.18949 42.7616C3.26956 42.4044 3.35408 42.0472 3.45195 41.69C3.52757 41.3593 3.62099 41.0242 3.7144 40.6934C3.85675 40.1731 4.01689 39.6528 4.18593 39.1368C4.31494 38.7311 4.45284 38.3298 4.59519 37.933C4.73753 37.5317 4.88878 37.1348 5.04447 36.7423C8.91903 26.8381 16.2277 19.0328 25.4849 13.8911C35.2046 10.2707 46.21 9.9047 56.7571 13.6133C69.7153 18.1774 79.306 27.9449 83.9769 39.7101Z" fill="url(#paint9_linear_293_1352)"/>
<path d="M113.327 74.8204C121.539 49.5351 104.778 21.0129 75.3336 10.6633C70.5427 8.97875 65.7117 7.87632 60.9253 7.3251C68.1584 5.56121 75.7206 4.90857 83.3363 5.48625C109.333 17.6351 122.487 47.3346 113.327 74.8204Z" fill="url(#paint10_linear_293_1352)"/>
</g>
<defs>
<radialGradient id="paint0_radial_293_1352" cx="0" cy="0" r="1" gradientUnits="userSpaceOnUse" gradientTransform="translate(73.4731 112.7) scale(41.9917 4.69966)">
<stop stop-color="#515151"/>
<stop offset="0.9997" stop-color="white" stop-opacity="0"/>
</radialGradient>
<linearGradient id="paint1_linear_293_1352" x1="92.4414" y1="90.0495" x2="101.889" y2="39.7484" gradientUnits="userSpaceOnUse">
<stop stop-color="#0059CF"/>
<stop offset="0.3091" stop-color="#0041B4"/>
<stop offset="0.7558" stop-color="#002393"/>
<stop offset="0.9996" stop-color="#001886"/>
</linearGradient>
<linearGradient id="paint2_linear_293_1352" x1="83.0588" y1="37.4876" x2="21.3763" y2="39.3934" gradientUnits="userSpaceOnUse">
<stop stop-color="#8137C2"/>
<stop offset="1" stop-color="#300054"/>
</linearGradient>
<linearGradient id="paint3_linear_293_1352" x1="46.6588" y1="20.2072" x2="66.4441" y2="98.1288" gradientUnits="userSpaceOnUse">
<stop offset="0.00030185" stop-color="#C66FD7"/>
<stop offset="1" stop-color="#8137C2"/>
</linearGradient>
<linearGradient id="paint4_linear_293_1352" x1="18.0678" y1="76.281" x2="38.0824" y2="36.9115" gradientUnits="userSpaceOnUse">
<stop offset="0.00030185" stop-color="#C66FD7"/>
<stop offset="1" stop-color="#8137C2"/>
</linearGradient>
<linearGradient id="paint5_linear_293_1352" x1="28.7563" y1="82.6521" x2="74.5762" y2="99.0467" gradientUnits="userSpaceOnUse">
<stop offset="0.00030185" stop-color="#FFC9E1"/>
<stop offset="1" stop-color="#8137C2"/>
</linearGradient>
<linearGradient id="paint6_linear_293_1352" x1="41.971" y1="63.9075" x2="61.6358" y2="89.0734" gradientUnits="userSpaceOnUse">
<stop offset="0.00030185" stop-color="#FFC9E1"/>
<stop offset="1" stop-color="#8137C2"/>
</linearGradient>
<linearGradient id="paint7_linear_293_1352" x1="49.096" y1="99.6646" x2="103.996" y2="44.4164" gradientUnits="userSpaceOnUse">
<stop stop-color="#FFC9E1"/>
<stop offset="1" stop-color="#8137C2"/>
</linearGradient>
<linearGradient id="paint8_linear_293_1352" x1="91.3547" y1="78.7095" x2="33.9235" y2="35.7619" gradientUnits="userSpaceOnUse">
<stop stop-color="#0059CF"/>
<stop offset="0.9996" stop-color="#001886"/>
</linearGradient>
<linearGradient id="paint9_linear_293_1352" x1="12.7904" y1="48.0087" x2="67.6944" y2="31.7414" gradientUnits="userSpaceOnUse">
<stop offset="0.00028409" stop-color="#44FFFF"/>
<stop offset="0.9996" stop-color="#0059CF"/>
</linearGradient>
<linearGradient id="paint10_linear_293_1352" x1="118.352" y1="60.3495" x2="75.072" y2="5.71612" gradientUnits="userSpaceOnUse">
<stop stop-color="#8137C2"/>
<stop offset="1" stop-color="#300054"/>
</linearGradient>
<clipPath id="clip0_293_1352">
<rect width="120" height="118" fill="white"/>
</clipPath>
</defs>
</svg>
