<svg width="68" height="68" viewBox="0 0 68 68" fill="none" xmlns="http://www.w3.org/2000/svg">
<circle cx="34" cy="34" r="33.5" stroke="#853AC3"/>
<circle cx="34" cy="34" r="33.5" stroke="url(#paint0_linear_292_1096)"/>
<path d="M44.3065 35.2911L30.5089 43.4514C29.509 44.0428 28.2453 43.3221 28.2453 42.1603L28.2453 25.8396C28.2453 24.6779 29.509 23.9572 30.5089 24.5485L44.3065 32.7089C45.2884 33.2896 45.2884 34.7104 44.3065 35.2911Z" fill="#853AC3"/>
<path d="M44.3065 35.2911L30.5089 43.4514C29.509 44.0428 28.2453 43.3221 28.2453 42.1603L28.2453 25.8396C28.2453 24.6779 29.509 23.9572 30.5089 24.5485L44.3065 32.7089C45.2884 33.2896 45.2884 34.7104 44.3065 35.2911Z" fill="url(#paint1_linear_292_1096)"/>
<path d="M44.3065 35.2911L30.5089 43.4514C29.509 44.0428 28.2453 43.3221 28.2453 42.1603L28.2453 25.8396C28.2453 24.6779 29.509 23.9572 30.5089 24.5485L44.3065 32.7089C45.2884 33.2896 45.2884 34.7104 44.3065 35.2911Z" stroke="#853AC3"/>
<path d="M44.3065 35.2911L30.5089 43.4514C29.509 44.0428 28.2453 43.3221 28.2453 42.1603L28.2453 25.8396C28.2453 24.6779 29.509 23.9572 30.5089 24.5485L44.3065 32.7089C45.2884 33.2896 45.2884 34.7104 44.3065 35.2911Z" stroke="url(#paint2_linear_292_1096)"/>
<defs>
<linearGradient id="paint0_linear_292_1096" x1="68" y1="36.1223" x2="-0.000729977" y2="36.1745" gradientUnits="userSpaceOnUse">
<stop stop-color="#00E0FF"/>
<stop offset="0.341667" stop-color="#0057FF"/>
<stop offset="0.659375" stop-color="#8000FF"/>
<stop offset="1" stop-color="#DB00FF"/>
</linearGradient>
<linearGradient id="paint1_linear_292_1096" x1="33.4999" y1="47.4717" x2="33.4787" y2="20.528" gradientUnits="userSpaceOnUse">
<stop stop-color="#00E0FF"/>
<stop offset="0.341667" stop-color="#0057FF"/>
<stop offset="0.659375" stop-color="#8000FF"/>
<stop offset="1" stop-color="#DB00FF"/>
</linearGradient>
<linearGradient id="paint2_linear_292_1096" x1="33.4999" y1="47.4717" x2="33.4787" y2="20.528" gradientUnits="userSpaceOnUse">
<stop stop-color="#00E0FF"/>
<stop offset="0.341667" stop-color="#0057FF"/>
<stop offset="0.659375" stop-color="#8000FF"/>
<stop offset="1" stop-color="#DB00FF"/>
</linearGradient>
</defs>
</svg>
