<svg width="32" height="32" viewBox="0 0 32 32" fill="none" xmlns="http://www.w3.org/2000/svg">
<path d="M26 10H23.238C23.8843 9.03789 24.1332 7.86301 23.9326 6.72146C23.732 5.57992 23.0975 4.56028 22.1619 3.87612C21.2264 3.19196 20.0624 2.89636 18.9137 3.05125C17.7651 3.20613 16.7209 3.79948 16 4.707C15.2791 3.79948 14.2349 3.20613 13.0863 3.05125C11.9376 2.89636 10.7736 3.19196 9.83806 3.87612C8.9025 4.56028 8.26796 5.57992 8.06738 6.72146C7.86679 7.86301 8.11571 9.03789 8.762 10H6C5.46973 10.0005 4.96133 10.2114 4.58637 10.5864C4.21141 10.9613 4.00053 11.4697 4 12V16C4.00053 16.5303 4.21141 17.0387 4.58637 17.4136C4.96133 17.7886 5.46973 17.9995 6 18V28C6.00053 28.5303 6.21141 29.0387 6.58637 29.4136C6.96133 29.7886 7.46973 29.9995 8 30H24C24.5303 29.9995 25.0387 29.7886 25.4136 29.4136C25.7886 29.0387 25.9995 28.5303 26 28V18C26.5303 17.9995 27.0387 17.7886 27.4136 17.4136C27.7886 17.0387 27.9995 16.5303 28 16V12C27.9995 11.4697 27.7886 10.9613 27.4136 10.5864C27.0387 10.2114 26.5303 10.0005 26 10ZM17 7.5C17 7.00555 17.1466 6.5222 17.4213 6.11108C17.696 5.69995 18.0865 5.37952 18.5433 5.1903C19.0001 5.00109 19.5028 4.95158 19.9877 5.04804C20.4727 5.1445 20.9181 5.38261 21.2678 5.73224C21.6174 6.08187 21.8555 6.52733 21.952 7.01228C22.0484 7.49723 21.9989 7.9999 21.8097 8.45671C21.6205 8.91353 21.3 9.30397 20.8889 9.57868C20.4778 9.85338 19.9945 10 19.5 10H17V7.5ZM12.5 5C13.1628 5.0008 13.7982 5.26444 14.2669 5.73311C14.7356 6.20178 14.9992 6.83721 15 7.5V10H12.5C11.837 10 11.2011 9.73661 10.7322 9.26777C10.2634 8.79893 10 8.16304 10 7.5C10 6.83696 10.2634 6.20108 10.7322 5.73224C11.2011 5.2634 11.837 5 12.5 5ZM6 12H15V16H6V12ZM8 18H15V28H8V18ZM24.001 28H17V18H24L24.001 28ZM17 16V12H26L26.001 16H17Z" fill="white"/>
</svg>
