<svg width="21" height="20" viewBox="0 0 21 20" fill="none" xmlns="http://www.w3.org/2000/svg">
<path d="M18.268 5.54919C19.0971 7.38323 19.2481 9.52961 18.5272 11.5787C18.3707 12.0237 18.18 12.4459 17.9574 12.8438C17.9901 13.0949 18.0072 13.3491 18.0088 13.605C18.0095 13.6905 18.008 13.7769 18.0056 13.8632C18.0056 13.8702 18.0056 13.8773 18.0049 13.8844C18.0018 13.9715 17.9971 14.0594 17.9901 14.1473C17.9901 14.1481 17.9901 14.1488 17.9901 14.1496C17.9838 14.232 17.9753 14.3152 17.9652 14.3984C17.9636 14.411 17.9621 14.4235 17.9605 14.4361C17.9504 14.5208 17.9379 14.6056 17.9239 14.6903C17.9231 14.6935 17.9223 14.6974 17.9223 14.7005C17.9091 14.779 17.8943 14.8575 17.878 14.936C17.8741 14.954 17.871 14.9713 17.8671 14.9893C17.8492 15.071 17.8305 15.1534 17.8102 15.235C17.8095 15.2389 17.8079 15.2428 17.8071 15.2468C17.7877 15.3237 17.7659 15.4006 17.7425 15.4767C17.7363 15.4971 17.7301 15.5175 17.7238 15.5379C17.6989 15.618 17.6732 15.6988 17.6452 15.7788C17.4436 16.3517 17.1688 16.876 16.8356 17.3476V17.3484C15.7551 18.8725 14.0572 19.826 12.2317 19.9766L12.231 19.9774C15.3838 19.8158 19.1165 16.5197 19.9012 13.091C20.64 10.5082 19.9619 7.75522 18.268 5.54919Z" fill="url(#paint0_linear_1138_2812)"/>
<path d="M19.8326 13.3154C21.2697 8.81546 18.3364 3.73949 13.1837 1.89761C12.3453 1.59782 11.4999 1.40162 10.6622 1.30353C6.35652 0.791848 2.30381 2.84876 0.882324 6.5396C2.81526 1.40084 8.48097 -1.26036 13.6446 0.586235C13.9676 0.701598 14.2806 0.832657 14.5834 0.975487C19.1335 3.13835 21.4355 8.42386 19.8326 13.3154Z" fill="url(#paint1_linear_1138_2812)"/>
<path d="M16.1433 14.5161C15.2309 17.1098 12.9625 18.8269 10.427 19.1455C10.508 19.1133 10.5897 19.0788 10.6691 19.0435L10.6707 19.0427C11.7535 18.5577 12.7001 17.7682 13.3727 16.7378L13.3735 16.737C13.646 16.3195 13.8733 15.862 14.0469 15.3691C14.7864 13.2667 14.3583 11.0309 13.1018 9.38282C13.101 9.38282 13.101 9.38125 13.1003 9.38125C12.4627 8.54703 11.6126 7.86427 10.5951 7.42714C10.4737 7.37456 10.3491 7.32591 10.2238 7.28039C7.61983 6.34885 4.81267 7.24978 3.19189 9.31769C4.54332 6.23506 7.8814 4.56347 11.1144 5.30823C11.1191 5.3098 11.1229 5.31137 11.1276 5.31216C11.4001 5.38436 11.6725 5.46911 11.9442 5.56642C12.1326 5.63392 12.3179 5.70612 12.4985 5.78459C15.7362 7.28981 17.3585 11.0623 16.1433 14.5161Z" fill="url(#paint2_linear_1138_2812)"/>
<path d="M3.19181 9.31774C2.77377 9.84982 2.43436 10.458 2.1977 11.1322C1.84116 12.1445 1.75631 13.1867 1.90344 14.1795C1.88554 14.1528 1.86685 14.1253 1.84973 14.0963C1.18958 12.5856 1.06114 10.936 1.60529 9.38837C2.47639 6.9116 4.85228 5.32869 7.654 5.03126C8.76254 4.91433 9.93958 4.9983 11.1151 5.30907C7.88053 4.56353 4.54245 6.23433 3.19181 9.31774Z" fill="url(#paint3_linear_1138_2812)"/>
<path d="M13.354 16.7645C12.8791 17.5673 11.6157 18.8677 9.87577 19.3347C9.59786 19.4092 9.30983 19.4312 9.02569 19.3833C9.02413 19.3841 9.02335 19.3833 9.02179 19.3833C8.508 19.1369 8.0417 18.8293 7.626 18.4691C6.4435 17.4449 5.68372 16.0119 5.48598 14.4667C5.4782 14.4251 5.47119 14.3827 5.46497 14.3395C5.44628 14.2093 5.4385 14.079 5.44083 13.9511C5.44083 13.9471 5.44083 13.944 5.44083 13.9409C5.45485 13.1498 5.83396 12.4262 6.43416 11.964C7.15269 13.9385 8.70573 15.5873 10.824 16.3446C11.6616 16.6429 12.5163 16.7786 13.354 16.7645Z" fill="url(#paint4_linear_1138_2812)"/>
<path d="M13.371 16.7371C13.3656 16.7465 13.3609 16.7559 13.3539 16.7646C12.5155 16.7787 11.6607 16.6429 10.8239 16.3439C8.70488 15.5866 7.15261 13.9378 6.43408 11.9633C6.76882 11.7058 7.17129 11.5285 7.61813 11.4657C8.92596 11.2821 10.1388 12.143 10.4269 13.4159C10.4276 13.4175 10.4821 13.7761 10.4829 13.7785C10.7842 15.2845 11.9456 16.4224 13.371 16.7371Z" fill="url(#paint5_linear_1138_2812)"/>
<path d="M17.9422 12.7394C17.9422 12.7371 17.9407 12.7339 17.9414 12.7316C17.936 12.697 17.8628 12.212 17.8574 12.1806C17.8317 12.0025 17.799 11.8251 17.7585 11.6478C17.7569 11.6446 17.7546 11.6399 17.7554 11.6384C17.6363 11.1235 17.4549 10.6174 17.2167 10.1269C17.2167 10.1245 17.2159 10.1229 17.2159 10.1214C16.3331 8.2999 14.6742 6.70679 12.4976 5.78467C15.7345 7.28988 17.3568 11.0623 16.1416 14.5162C15.2347 17.0934 12.9896 18.805 10.4728 19.1385C10.4713 19.1377 10.4697 19.137 10.4697 19.137C8.82012 19.3339 7.37061 18.236 7.37061 18.236C8.66209 19.374 9.73637 19.9257 11.4046 19.9908C11.4124 19.9908 11.4202 19.9916 11.4272 19.9916C11.47 19.9932 11.5121 19.9947 11.5557 19.9955C11.6319 19.9979 11.709 19.9979 11.7853 19.9971C11.8157 19.9971 11.846 19.9971 11.8772 19.9971L11.8764 19.9963C13.835 19.9469 15.6831 18.9706 16.8329 17.3492V17.3484C17.1661 16.8768 17.4409 16.3526 17.6425 15.7797C18.0006 14.7689 18.087 13.7298 17.9422 12.7394Z" fill="url(#paint6_linear_1138_2812)"/>
<path d="M18.527 11.5787C18.3706 12.0236 18.1798 12.4458 17.9572 12.8437C17.9525 12.8084 17.9479 12.7739 17.9432 12.7401C17.9432 12.7378 17.9416 12.7346 17.9424 12.7323C17.937 12.6978 17.8638 12.2128 17.8583 12.1814C17.8326 12.0032 17.8 11.8259 17.7595 11.6485C17.7579 11.6454 17.7556 11.6407 17.7564 11.6391C17.6373 11.1243 17.4559 10.6181 17.2177 10.1276C17.2177 10.1252 17.2169 10.1237 17.2169 10.1221C16.6618 8.97632 15.8001 7.92157 14.6962 7.06694C13.8975 6.44775 12.9734 5.9345 11.9443 5.56644C10.4963 5.04848 9.02348 4.88603 7.65338 5.03043C5.94775 5.2125 4.40015 5.86858 3.25347 6.9147C2.51781 7.58647 1.94564 8.41834 1.60467 9.38755C1.06052 10.9351 1.18896 12.5848 1.84911 14.0955C1.82186 14.0554 1.79539 14.0154 1.77048 13.9738C1.72767 13.9055 1.68485 13.8373 1.64359 13.7674C1.60467 13.7023 1.56652 13.6371 1.52916 13.5704C1.52449 13.5634 1.52059 13.5563 1.51592 13.5485C1.48245 13.4888 1.44897 13.4284 1.41706 13.3672C1.41083 13.357 1.4046 13.3468 1.39993 13.335C1.36412 13.2683 1.32909 13.2008 1.29639 13.1333C1.26603 13.0752 1.23723 13.0156 1.20921 12.9575C1.13447 12.7998 1.06519 12.6413 1.00135 12.4804C0.970993 12.4074 0.942968 12.3328 0.914165 12.2591C0.855001 12.1005 0.79973 11.9404 0.749908 11.7803C0.732003 11.7223 0.714098 11.6634 0.69775 11.6053C0.69308 11.5912 0.68763 11.5771 0.684516 11.5622C0.665833 11.4955 0.64715 11.428 0.630024 11.3605C0.612119 11.2906 0.594992 11.2208 0.579423 11.151C0.565411 11.0944 0.552955 11.0387 0.542056 10.9822C0.532715 10.9414 0.52493 10.9014 0.517924 10.8614C0.506247 10.7986 0.49457 10.7358 0.48445 10.673C0.471994 10.5961 0.459539 10.5192 0.44864 10.4431C0.43852 10.3756 0.429957 10.3089 0.422951 10.2414C0.419058 10.2202 0.417501 10.1982 0.415166 10.1763C0.399597 10.0342 0.387919 9.89138 0.380135 9.74776C0.376242 9.67164 0.37235 9.59237 0.371572 9.51547C0.367679 9.37813 0.367679 9.24079 0.371572 9.10267C0.37235 9.05872 0.373907 9.01556 0.377021 8.97161C0.377799 8.9308 0.380913 8.88921 0.383249 8.8484C0.384806 8.81936 0.386363 8.78954 0.389476 8.7605C0.39259 8.70243 0.39804 8.64514 0.404267 8.5855C0.403489 8.58393 0.403489 8.58157 0.404267 8.57765C0.410495 8.51094 0.41828 8.44345 0.425286 8.37675C0.427621 8.35634 0.429957 8.33437 0.433849 8.31396C0.441634 8.25432 0.449419 8.19468 0.459539 8.13582C0.460317 8.1264 0.461096 8.1162 0.463431 8.106C0.471994 8.05028 0.481336 7.99613 0.491456 7.94119C0.496905 7.90823 0.502355 7.8737 0.509361 7.83995C0.513253 7.81798 0.517924 7.79522 0.523373 7.77246C0.533493 7.71831 0.54517 7.66416 0.558404 7.61001C0.572417 7.54645 0.587208 7.48288 0.604334 7.41931C0.617568 7.36045 0.633916 7.30081 0.650264 7.24195C0.675175 7.14935 0.7032 7.05674 0.732782 6.96492C0.755357 6.89272 0.77949 6.82131 0.804401 6.75068C0.829312 6.67926 0.85578 6.60863 0.883026 6.53878C1.56107 4.77616 2.8401 3.3871 4.46009 2.47204C5.63014 1.81047 6.98078 1.39453 8.41083 1.26897C9.94986 1.13085 11.5815 1.3239 13.1844 1.8968C15.3057 2.6549 17.0495 3.95999 18.2686 5.54839C19.0969 7.38243 19.2479 9.52881 18.527 11.5787Z" fill="url(#paint7_linear_1138_2812)"/>
<path d="M14.6962 7.06696C13.8975 6.44776 12.9734 5.93452 11.9443 5.56645C10.4963 5.0485 9.02348 4.88605 7.65338 5.03045C4.85244 5.32709 2.47655 6.91 1.60467 9.38756C1.06052 10.9352 1.18896 12.5848 1.84911 14.0955C1.82186 14.0554 1.79539 14.0154 1.77048 13.9738C1.72767 13.9056 1.68485 13.8373 1.64359 13.7674C1.60467 13.7023 1.56652 13.6372 1.52916 13.5705C1.52449 13.5634 1.52059 13.5563 1.51592 13.5485C1.48245 13.4888 1.44897 13.4284 1.41706 13.3672C1.41083 13.357 1.4046 13.3468 1.39993 13.335C1.36412 13.2683 1.32909 13.2008 1.29639 13.1333C1.26603 13.0753 1.23723 13.0156 1.20921 12.9575C1.13447 12.7998 1.06519 12.6413 1.00135 12.4804C0.970993 12.4074 0.942968 12.3328 0.914165 12.2591C0.855001 12.1006 0.79973 11.9405 0.749908 11.7804C0.732003 11.7223 0.714098 11.6634 0.69775 11.6054C0.69308 11.5912 0.68763 11.5771 0.684516 11.5622C0.665833 11.4955 0.64715 11.428 0.630024 11.3605C0.612119 11.2907 0.594992 11.2208 0.579423 11.151C0.565411 11.0945 0.552955 11.0387 0.542056 10.9822C0.532715 10.9414 0.52493 10.9014 0.517924 10.8614C0.506247 10.7986 0.49457 10.7358 0.48445 10.673C0.471994 10.5961 0.459539 10.5192 0.44864 10.4431C0.43852 10.3756 0.429957 10.3089 0.422951 10.2414C0.419058 10.2202 0.417501 10.1982 0.415166 10.1763C0.399597 10.0342 0.387919 9.89139 0.380135 9.74777C0.376242 9.67165 0.37235 9.59239 0.371572 9.51548C0.367679 9.37814 0.367679 9.2408 0.371572 9.10268C0.37235 9.05873 0.373907 9.01557 0.377021 8.97162C0.377799 8.93082 0.380913 8.88922 0.383249 8.84841C0.384806 8.81938 0.386363 8.78955 0.389476 8.76052C0.39259 8.70244 0.39804 8.64515 0.404267 8.58551C0.403489 8.58394 0.403489 8.58159 0.404267 8.57766C0.410495 8.51096 0.41828 8.44347 0.425286 8.37676C0.427621 8.35635 0.429957 8.33438 0.433849 8.31398C0.441634 8.25433 0.449419 8.19469 0.459539 8.13583C0.460317 8.12641 0.461096 8.11621 0.463431 8.10601C0.471994 8.05029 0.481336 7.99614 0.491456 7.9412C0.496905 7.90824 0.502355 7.87371 0.509361 7.83997C0.513253 7.81799 0.517924 7.79523 0.523373 7.77248C0.533493 7.71833 0.54517 7.66418 0.558404 7.61003C0.572417 7.54646 0.587208 7.48289 0.604334 7.41932C0.617568 7.36047 0.633916 7.30082 0.650264 7.24196C0.675175 7.14936 0.7032 7.05675 0.732782 6.96493C0.755357 6.89273 0.77949 6.82132 0.804401 6.75069C0.829312 6.67927 0.85578 6.60864 0.883026 6.5388C1.56107 4.77618 2.8401 3.38711 4.46009 2.47205C6.16105 1.82775 8.08699 1.76261 9.93274 2.42261C12.2004 3.23486 13.8788 4.97316 14.6962 7.06696Z" fill="url(#paint8_linear_1138_2812)"/>
<path d="M19.8325 13.3154C21.2695 8.8155 18.3363 3.73952 13.1836 1.89764C12.3452 1.59785 11.4997 1.40165 10.6621 1.30356C11.9279 0.989643 13.2513 0.873495 14.584 0.976302C19.1334 3.13838 21.4354 8.42389 19.8325 13.3154Z" fill="url(#paint9_linear_1138_2812)"/>
<defs>
<linearGradient id="paint0_linear_1138_2812" x1="16.1777" y1="16.0257" x2="17.8856" y2="7.08421" gradientUnits="userSpaceOnUse">
<stop stop-color="#0059CF"/>
<stop offset="0.3091" stop-color="#0041B4"/>
<stop offset="0.7558" stop-color="#002393"/>
<stop offset="0.9996" stop-color="#001886"/>
</linearGradient>
<linearGradient id="paint1_linear_1138_2812" x1="14.5356" y1="6.67146" x2="3.74084" y2="6.99944" gradientUnits="userSpaceOnUse">
<stop stop-color="#8137C2"/>
<stop offset="1" stop-color="#300054"/>
</linearGradient>
<linearGradient id="paint2_linear_1138_2812" x1="8.16545" y1="3.59614" x2="11.7389" y2="17.4349" gradientUnits="userSpaceOnUse">
<stop offset="0.00030185" stop-color="#C66FD7"/>
<stop offset="1" stop-color="#8137C2"/>
</linearGradient>
<linearGradient id="paint3_linear_1138_2812" x1="3.16194" y1="13.5754" x2="6.75899" y2="6.6178" gradientUnits="userSpaceOnUse">
<stop offset="0.00030185" stop-color="#C66FD7"/>
<stop offset="1" stop-color="#8137C2"/>
</linearGradient>
<linearGradient id="paint4_linear_1138_2812" x1="5.03246" y1="14.7092" x2="13.0811" y2="17.5411" gradientUnits="userSpaceOnUse">
<stop offset="0.00030185" stop-color="#FFC9E1"/>
<stop offset="1" stop-color="#8137C2"/>
</linearGradient>
<linearGradient id="paint5_linear_1138_2812" x1="7.34495" y1="11.3733" x2="10.8584" y2="15.7947" gradientUnits="userSpaceOnUse">
<stop offset="0.00030185" stop-color="#FFC9E1"/>
<stop offset="1" stop-color="#8137C2"/>
</linearGradient>
<linearGradient id="paint6_linear_1138_2812" x1="8.59185" y1="17.7369" x2="18.3619" y2="8.06881" gradientUnits="userSpaceOnUse">
<stop stop-color="#FFC9E1"/>
<stop offset="1" stop-color="#8137C2"/>
</linearGradient>
<linearGradient id="paint7_linear_1138_2812" x1="15.9873" y1="14.0075" x2="5.81627" y2="6.52829" gradientUnits="userSpaceOnUse">
<stop stop-color="#0059CF"/>
<stop offset="0.9996" stop-color="#001886"/>
</linearGradient>
<linearGradient id="paint8_linear_1138_2812" x1="2.23856" y1="8.54383" x2="11.8725" y2="5.73702" gradientUnits="userSpaceOnUse">
<stop offset="0.00028409" stop-color="#44FFFF"/>
<stop offset="0.9996" stop-color="#0059CF"/>
</linearGradient>
<linearGradient id="paint9_linear_1138_2812" x1="20.7119" y1="10.7401" x2="12.9808" y2="1.14371" gradientUnits="userSpaceOnUse">
<stop stop-color="#8137C2"/>
<stop offset="1" stop-color="#300054"/>
</linearGradient>
</defs>
</svg>
