<svg width="603" height="307" viewBox="0 0 603 307" fill="none" xmlns="http://www.w3.org/2000/svg">
<path fill-rule="evenodd" clip-rule="evenodd" d="M583.045 306.932C580.246 306.932 577.996 304.635 578 301.836C578 301.724 578 301.612 578 301.5C578 148.793 454.207 25 301.5 25C148.793 25 25 148.793 25 301.5C25 301.612 25.0001 301.724 25.0002 301.835C25.0035 304.635 22.7541 306.932 19.955 306.932H4.96039C2.2334 306.932 0.00504508 304.747 0.000439336 302.02C0.000146484 301.847 0 301.673 0 301.5C0 134.986 134.986 0 301.5 0C468.014 0 603 134.986 603 301.5C603 301.673 603 301.847 603 302.02C602.995 304.747 600.767 306.932 598.04 306.932H583.045Z" fill="#853AC3"/>
<path fill-rule="evenodd" clip-rule="evenodd" d="M583.045 306.932C580.246 306.932 577.996 304.635 578 301.836C578 301.724 578 301.612 578 301.5C578 148.793 454.207 25 301.5 25C148.793 25 25 148.793 25 301.5C25 301.612 25.0001 301.724 25.0002 301.835C25.0035 304.635 22.7541 306.932 19.955 306.932H4.96039C2.2334 306.932 0.00504508 304.747 0.000439336 302.02C0.000146484 301.847 0 301.673 0 301.5C0 134.986 134.986 0 301.5 0C468.014 0 603 134.986 603 301.5C603 301.673 603 301.847 603 302.02C602.995 304.747 600.767 306.932 598.04 306.932H583.045Z" fill="url(#paint0_linear_292_1102)"/>
<defs>
<linearGradient id="paint0_linear_292_1102" x1="603" y1="163.046" x2="-0.00545536" y2="163.956" gradientUnits="userSpaceOnUse">
<stop stop-color="#003FB2"/>
<stop offset="0.0001" stop-color="#00E0FF"/>
<stop offset="0.378125" stop-color="#0057FF"/>
<stop offset="0.64375" stop-color="#8000FF"/>
<stop offset="1" stop-color="#DB00FF"/>
</linearGradient>
</defs>
</svg>
